<mxfile host="65bd71144e">
    <diagram id="_l9gL7-r-WphNW7pYhXx" name="第 1 页">
        <mxGraphModel dx="803" dy="619" grid="1" gridSize="10" guides="1" tooltips="1" connect="1" arrows="1" fold="1" page="1" pageScale="1" pageWidth="850" pageHeight="1100" math="0" shadow="0">
            <root>
                <mxCell id="0"/>
                <mxCell id="1" parent="0"/>
                <mxCell id="5" value="甲&lt;span style=&quot;white-space: pre;&quot;&gt;&#9;&lt;/span&gt;乙&lt;br&gt;a&lt;span style=&quot;white-space: pre;&quot;&gt;&#9;&lt;/span&gt;b&lt;br&gt;1&lt;span style=&quot;white-space: pre;&quot;&gt;&#9;&lt;/span&gt;2&lt;span style=&quot;white-space: pre;&quot;&gt;&#9;&lt;/span&gt;3" style="text;html=1;align=center;verticalAlign=middle;resizable=0;points=[];autosize=1;strokeColor=none;fillColor=none;movable=0;rotatable=0;deletable=0;editable=0;connectable=0;" parent="1" vertex="1">
                    <mxGeometry x="120" y="60" width="80" height="60" as="geometry"/>
                </mxCell>
                <mxCell id="6" value="" style="shape=image;verticalLabelPosition=bottom;labelBackgroundColor=default;verticalAlign=top;aspect=fixed;imageAspect=0;image=data:image/png,iVBORw0KGgoAAAANSUhEUgAAAJ8AAAB3CAYAAAAdDJIPAAAgAElEQVR4nO2dd3wVxdrHvzO7p6QnhN57UUQsgA0pAioqggoIFlCvinrt7XotF0UsiL3y2q4F9dp7QcWuyKVYQJqAUgMhISH1nLM7z/vH7klOIIQAwXLNz8/Bk7O7s7OzzzwzT1c5OS9Ig7QnUU4EEATBJQSShVLNMCpIeWQtsbIVZGaGUUoQEUDwoEE0oABB4aIwKP+oUgoRQSnvF+/aOBQKC1HKu7NyEVxqD+XfW0AZ/29VeayiF4n93TUoqWwt8fZVsN1biNcAgChExU+trq8Jzauqv1Udu3iftn02UYA/7tt0VhnizUplR6p/vj0MOxJ1iEYdgkqjlItCsASUFcAOpWMknUi0GFwbbTQo1++kR2zg+p/4APuf+FiLBjQihqqD5A24iAFRXpsadDVEWh3hKv9eQpzooAqRSeILVYDlf9+6H9uH+M1s98XUqpmqhFd5oap6zjaNKcS/VIvfj/gRSfwiXmv+BMY/H3+sqhK515BSXmMiUtuh2COw7QDY2sJRxSjlcTCDwbKi2LoUbRSWKsO1IsR0AO8MqeRuiZxGfIJUWxNZ/P8ekYgYUOIRkJLKa8WfjRWX+gMo245QlfOqHKiOiwge0Wn/s+MR3yHh7Qyk6lfZ6lsclffyRhh8wtvqnMq2FJVDEx9f8YhW+Ry24gTZhpP+dlBAfHX0GRVgGxPAJRkoqzhBiVBUmMuveWsAG62jpKVaKNGVtIY/0+LcTuG/eF15PwA8QqsgCgVxLqQQlD+9BUVVerJALOrg1ScMwE62JTUt2HGC3gXWIV5/pILUEglPEOVtf0QLRqoeN7pyYuATWRWC1Kpqj/zjKuHZxf9bxW9OfAnehTGqDsrBG5uKp0voYLDib1uTSnKgPahG3o/+7AgHFdmZNnHiURIgPrMqn1Yqjlfch60fIuF4dccSlug9s+nY/f1enbab+B6qWygqzlGIUttdSGq+NqGLVbpsU8EctulXnOjrANURX8V7r2QoNhJCdAtMlRdfySaVePu6OFcSXd3sSNxzeX9WDory+rHVKCVy0GqXyW1GdVewpwgvEbvCLarui7e9fKs9YnXN12bCJhBqxShsh7vVEc/z75E47lsRn6o8Zts6GZxMsMorThafAyrxt7OJjVV0vpruJpy3zSvfZhbu6AF2+Ih/WlRwrZrPoi4GQVRc9tg+ef2mkm7CI9mC8vcJuspEUxUd3uqKeuw2asfU64YX/R4qlNpCf/PtlxjleAutL6bXyYpXj3rsAPrTTz8BtZ1NaD3qsQdhax1CYyHEtjoUV2AqBF9KEoVSsQQFwdbYnaXitxAO6rF72NX3W/27tWu8RASlkigryWDtmhKCIaFV6xSULmBbLX3d4PdY8kXVqaxXmzvy55todT9G1RBfpZChJImvP1vJtdc8xvzv1jJyTH8efvRs9B58UdszXOyhu7F7RBC3mOwsFOq3fVAffyyi94jPJIpEghKFKJuVq/N4/tVZNGzRjiWvTqFxcwNSUmmw2AZ/rIfbMeKEszt93jMrwJ7Bb83hPWxvnm1/2TWaDesLWLRoJS1aNierocKYMgJaI+Juayv/U+L3U2T/ucetblDNmuEZ/LVW5G0qZMXyX7CUxrICaGxwHN/q4aFeLVOPXUW1GxZBMCIUFxtyc6OezKt8TxZVr3iuR92g2mVXKYvSCGwoLKFVx44MGHQYSsVADI6mwhsDfq9dRD3+F7AN5xM0MQny2hvfc93VT3PIAV0YPfJwFFFUNdzuzyZi1OOPg2qX3e/mr+T5575knx49OfW0E0gKFoN47u3V7fHqCbAeu4Jqia9nz85cfdV4bFu4+eYHmPffXyt8RUUJKFP9p54E67ET2Ib4FAZbFXHYIWn8/fxDmDN3Pvc+9DqupPnexlLFCaHeGaEeu4pqOJ/n+Cc4pGcaWrYOorQAjrf01iuo6lFHqFbPF19Ck5LDZGU29LxelBciqepl23rUEaqRdsFVBqNjpGUm06J5A5RRGEKgAljKrV9i61EnqGbPB0o8w3fj7Ew6dWrFsmUbeP2Vn9mwIRPXZP0O3awL7Ea0WT32CKrd82mxUGLRtHEDzhg/iMMPb8iV/7iayy6dwsYNcXeqvx4EMMr7/DVHoG6hLr10hEydfByiIpU/+iPrDbIFEkSw0Ri0iiA4/Fm8ORJTdVSSTDyAOf5b7UhJ4mp25Xn+xONsK1FvetwZ2Fo0Srb2SxNEGeKZCUQ5KAVKxDet7Tm3+93bT/rkoCBOVKrie2U+mV1Vi1eEeVeEicaNi4lxzPWoLWrwZE5wKiXuwFfbmV237tY7d70f8rkNFScGMdfjj4Aa3eh/P7eBRCLfEcHX1L/aRFbX4/dCBfFV3RvVFeKcLHF52iqSvVZt7MpxtdX3WnJtqcz69L+ArdPT/ZGey9bay9okykCddGw76S/iRyvzNvh7s6rnVvwmfhYrqUwglHhtlXRsCTkClZ+SoTJvQnyPWrslXYlCi0Is5Y+H+Ond4ic4OMZG0FjawUtmtO0eWFWKJ7sPCXr3UGUoYnjjY3sf5YCK5zRUvoDo5UMx2gE7hmOiaAmhCHmGAvXHUDvZHq3U5WzwH0opxMCvv5bzycy1NGmaxNFD90KkxPeE9o3CeM6rnlXPQiQZJSFEAigywUkjEskjmCxYwTCIg2VngrEwzipck+PZllVlUkmlNVppjGMhRoGOVTleE8SyeeCB93j4oc9JTQowalRPzp5wNGnpARQBxITQhDCSRCxisJRGWzaWZaFt2+OcroMxxQhFKOXs9ogKEbRlI4SISRjHBVQI2wqjdSpKgt5zIxgpBDajxZsYC+ZvZtr9H/DdvNWs37SFa284gbPOOtQbf/l9tyV2Wloaxpg6EmAVxgSAEFp7K3o0ks+sr3/il19/IT0ziYMO7l7BwpQqR7HFWw7QlJak8/0PMZ596kXef+c9iouKQMHosYNp2qwpd935HGLAiItWinPPHczk20Yiyq2Y/aLAuDZlxUHycwMEQ5rGzSxQJbV7Aq1BazYX5HH8sKGcde7xpKYDGEQy+eH7Er6d/R3z5s9j1tfzKCospzziUB6JYVxwHUhJtrn6n6M474IhBAOJWbp2jdMIQVwnhEgSpcVZLF68iVdfeZePP/yCnJwNlJSW4zguSsGZ5wzj4suOpW3LIBqHvbu35fobz+DZZz7iiSc+wo3ZiLE95+DfWV1mDx06FNhSJ40J8O57s/nv7AJOH386+fl5LPhxE7+u2cTc+csYdsy12DYVky41I4Ozzj6Rf151LJbexLtvzeCqf75ITEU5c8IALphwIlnZIZYsXsudt7/NkCN7M3nSeNp3as+Dj7zFLysXI8qiUpIF0JRFk7n7gY+57aZnuPjSEdx0y4iKvKQ7fAZRRGOKZi2as/e+rUjLiC9RIK7Fa298wbRHn6Rdu3T69OtEp/bt+OLLRRx4UC8uu2wkGMMtE6fz+GP/oXlzl9FjBmHE3a0Vbta3C3j4oRl88ckyCrfEQEOjRsl0696M8Rccy5CjBnP/1Ld4fNob2HYAO+gtudp10QoaNg0wcuzRzPt+I7YVwtI25g+gFbJnzpzJvnsdUGcb0U2byrnjjhe57Y4XsS3Yt2c7hh59IEcd25XMrBSyslJp2DiDlJQkXn3lW+bOWc7Py/Lo0gVGjxlEUTSDF1+ewcCB/cnKaobrRCkuFjYXltK+TQs6dGzI6jU/sfinBYSSbMBCRCPK29cp0njy0Y+YcsvTZGZl0qBxKmi3Kn3WBKWJxTQpKVlkN8hCJ3AHy04mFEjm3HPHcvX1Y4i6JcydvZDvflxJRmYW2gqjiBEO22RnZ5KalobrJqQR3kUlZjBkURZ16DekKxMmHMt+++9HOBDAjZbgaptHHn6Pd976lPMuHMFFVx5J4+Y24nqe54IBrQinJBEKBjDGwTWuv9P6fYMg7FEjRwIr6qxBpeDIow5i4uRz6NytEUE7GeWmszGnmCVLllFQsJGkQGPatm5KUtIPaEth2Z4LlzEusaghb1MpLz//NY/d9y6rVq+gWYuGOJEAWgtGylm27CeWLFnMAQfuDwhKOyhsXCeJ7+fl8fUXSxAMB/bpRt/+PRHZOhVIDf33/01LTScjPY3EpUmIYCQCkk7BxlSWLl/Hh+8sZc6sX/ny6//j8UeeoCi/mILNUYYM2Z8WzZvj56jdrTE9oGdXXnx+H1BRL4iLAsQxWCpASXEyixZsZujQfky46EiaNrex3AjaVF1SbcvGsq0/lNbJvvfe+5hy8zHUel3aAUQgGosQiZQw86NfuPXmJ1i4YA1YEA6BZTTGVezXuyMNGmXTtEUD2nTIwLAJrQStYixbtoLcDSvYu1tjuu/XEJQhZspJSQuCshETwBghUppK4cYsMrO2oCyHWd8s5o6bX6V9585cedXZ/LRoMUkpPsfx7GIoZaG1xhinqhS7FZKTk0hOSaIylzNgRbFDUe6eMo1pjz5IMKw8+VJnce65pzFm9EDccpv77/4P4eRSWrZqVWtBpyZoFQXKiUvsohSKdKKljfjXNY9TkFfKFdcNp03bZLRbhvojrKm1gH3xRRdhgr9g7QR32B4UcMa4gZw17nhirmJjbhbPPXMLrdpko0WIRl2eeHImDz08naFH78+Ec47HVTGM3oyoAKKCWJZiUP8DueFff6PbXs3I2bCWtes3Mv2pL9lSGEEQBh3Zn3Baez79eAFLf17EoX1bI245hx7SjsPe+xebN7tMnfoSzZpl07ZVY7RbAgoiJUHunvoht93xPJddMYyJE0dgKK/2OdIz0slIz8TLVe1zPhMjIyPAxEnn8bdzj0Yo5o1XPmf6M1/RpHFjWrVpwZxZc/n5l6X07tOe1PRAghqkUiiqMcFmNRBJ8tQnuhSlXZSbzsIf8pk48UGWLlrJjZPGcED3JHCqClVxM6MyLknBAAEr4Cmj/iC6PjsvL49mrerKTUNAlyPE0AqaNLdRhHn77Xe4774Xyd2kKdhczoUXD+e8s4dhSwEBK4oIGGN56jpjMfPD+Xz0wQQiUdAWnHfRCO5/5GZmvP8Zw0dcycb1hZRFhDGnHEmvg1rixEqwLAO6FKGcoqJSNhcUkNYgm6TkZMQtRgRCSTbHDTuUNu2b06NnA9AxMAmcrfIpsCwb27apWIgVoGKkJAd48vGPeemF9yiPbGL9+mIKCzWz/7uQqy77F2XFHqM9/NC2BOytuJ4k3mdn9luuf6qNIon16yJMvet1Zn7xX6beMZ4Ro/fHyLaTqMpdlNrt5b+uYbds2RJYXEfNKcRYeJnkXZRyEOVi6XTWr7No2LgFd989jsMOaYrWJaBsjKMAg7YioAWlNEOO6sONN/6NLp1aYFyHadNeI90+CNEwcMChTLzhbxQUFrEmZy5LFi+m+95tq6T8LysvpaysjDTfsUBrjRIXiNCtRzpd9u2O1uUYE2V7BBCvVRGflUYUIg5Nm2bTpk1r2rZtxcDBhzBr9g988sksTjllBKNHH4GlIhjXxZhcUPkgCm0pj8bFV+VANXVJahpWF0TQBMnPFSbe+B9efPlT7rjnPMaf3RfjFm73UsGjeZXoyPMHgW2MwXEctNpd04tnSVBKeTo+lQxAcZEhO7sdvXv3paRsE+nJmpkz5jFv/nzefOtzCrcEmHDB0Zxz/lACyi+RYEUQKw9HQlhWkNEn92dDTiklEeHWqedhIrnMnZfDllILSwWh4kV6fXAcF9dxPAVwAgGJchA7Bri+gjWenT2BCIRtLROCHz4gDBpwIIMGHo3DZqCA1auKUFKAK4WIWoVrCgEL2/IysosY8vOL+XVNDunpmbRp0xZbu2AiCTU0djS0LiIGV4JMmfIiL/znIyZPmcC4M47GieVjJUjRSsXNmFU5q6CJV08xvhSs92i+se0+DHFTq63tAFprvwRVwuEdDkxVW6lC8/13S3noof/w7azV5ORApBRcgZhWOKIIBmDhgqX03HsvOrRvy9iTLyRiyunYqREiQUQ0ygjKBPll5RbefedLPv30K/r370uX7u24edKjpKRFuOaqk5n9zU/kbNrC+ecOwpgCL9OW/1AxJ0os5kmGIg6I4z9yAIXtvSzt4hoHLZXVMETAeP+g4xGhvvuUKIMSF1E5iFqPVl7lJKEIlIvWBqXLUFKKiMKIqqimtGL5Gm69/W2++HQFF100gvPOP5r0TIXWUruXLxZGhClTXubJpz/hjHOOYfhJ+xEM56Ml4q823ksTfxiUxM17CuWbH71aGyEUQaxAMmIsXImiTbxcWW31UbuDSjOnrbTepj7ajpHoKOB9FxSdOnXmxBEn0bH9Wg46uD+tWnYgKztEKBWmT/+QB+9/jPMvOo7x447EdRy09gZJKwetYrz+yixuu+15Vq/J5d23v6Ftm6YMG3YEQwb2o/s+7SjeXMY9977Mu298y68rc5hw/pEYpwwjNiohbjgSKaG8tAgTdXHKY9iWt5xHIkGmPfoRjz35DOecexQTzh1B1aVPEOPVlotGo0Si0aqDphxf7+ctmwaNEVNpqTKgxVNnxHVsSiv2O6AHzz3fj3vueoV7734BJMillw8lnBwFdmx+E8AVYdOmEtp3yuSIozrRokUQSxX5xGZXnqlAKStxx4BBE3UMjutiVAzHGKZO/jevv/o5/7zmQoYPPxiRolq++7qDDR6r3rWotDgBGsCQlKIYfHQXBh/d2T++EsHCkELb1im0appB7uqfscyhvvrAINojYBGL448/go25YebO+YbbppxMVqblLxFJRMqLKI1EWbt+E7GYcOrYE7jwwrEY8rbaRyt69d6HV946EFQMI4Wes6xAKOxw6ql9OPbY7mQ1SAcTQlSC3VcpLMsCpZk9dz6z/9uMdu17YJSFqzSWuFgSl1g9bh9X14gojJEKjZUkLHuKGLZVwBVXDGXfHpnce9drZGZqzvv7YM8xYAcQBYFgKspO5phjhnNEv6HYEsFE0z2nA7GxtIXrRincUkjOuhiffP4N++yXwiGHdcHSNkWFpZSWlCESRYjR58BefPjeOmZ9u4nefbbQrOlvvwDvwJ9ve9ieh8jWvwlIANdJw4kFsKwAVtBBdDlg/KJ2/tqmHEQVoVUxlqXBDhBTNpgkvpuzmdsnP8EHMz5n1JgBHHJYax6d9ioTJxZz4y2nkJVl0BKpUAUrIiARkIRCW0oBMbKyLLKy4srj0oS+esTiisYoi9Vr1rPi1wIcSUNTRkAcv3VdcRdjAsTKNdpAkgVaBKMUlYWtEluPolSUA3u14PKrD6Nxk2xICF2oCV6ZsHICVpTJkx7h1psfISUlQGpqGrYVoLikhC1bSonFvOVTFJxyeh8GHHk0RjRuNMimDS6lxQ4iNsYE6DuwD93fWEinDg1o0igTxBfTf0NPF9ur+rinbijk52/mqSff5aH7Xqfnga054ohevleLJ+UmGt2VimEFYoSSFMGQiyhDLBrgqy/msnbNMp546nxOGH0YKOHwfvtw562vce64yfxz4jD2369jjf2o7aCKKSccKMMmxjuvzaNl0wYMPbYT2Q3CVc5TShEI24gCbZVgB7YgEq2y+a+uF9nZ2QwePBgjBqmlMtjTkbvcPHkMl146nLVrC9icV05RUZSYKScc1qRnZJCZmU6jhplkZtjYgTIUIRZ+l8fHM77mjTe+ZuHC5Qwf3oXkkOaf1zxE0LYZMKA9Wpfusulvd6A2rJ8t6ZkLsBIDiKi7vgiamBsiGtNoHSUYcLCV9t2oXHQC4RssHCeEK4IdjPr+fBauY6NQWJZB6ZhvsbJxokIsFiMQgIBdu2qSO+qtKMPG3DKef/Yj3n13JscMPYTTxx1HVlZKNaf7aqUKJCiSt4P4vtrbTtQO8UIuSlsYiVvsLM83T7uAA6py4+RV9QTjKr6bv5IXX/iIhQuX0mWvtpx+2tH06N7OCzOQgK8DjO+Xf1sCVLnrv5X0zAUoVbm5rmvi8x7L9RNMapTYvqwSI1HGFsAolaCM9YUZEZQy3vX+6dUXj94d+O0pwUWDBBETRZmor2yu7uF2nvgqLq12cd5ez6o6popSKO0rf6SSjCvULD6xOo5vilM2rhtAica2ytC4viNGpcbCK5O1fcV3nTrH+rDnzZtH/4HBPeZiXVl1XMXtPXgz1ftt6xfg+ZduJfJX1ep4X+uE6BIb9l+ggI0Byv1k8zXFWMULXe/KrXeC01Q5zc9kX+GltbWoqCou8VRoAK4n8Xsi0lYNG7871YWC7lnYXTp1RLHqN2a49dj1mmi1J1pPUMFPbWfiTJGq5sTfr/qUXVZWVmn7+8uhmnDK/7EAItgdQt+z0DkbcvxKpb9N93Zmr7Y7BLDj9rfPQeLB8ttuCoynl4t/fhOLgPdqTDWfP/tqZZeXRdE6DdfEPDNMxXDvqh+aZ1+tLCrrSVIiniJbjJ9eVyWe73/E+PsojULjui5GwLJ0xWY3blHQvudyIscWjEcOyqqymlRIi1vtnaqDoDCu5Znh7ABKG8TEfeniUXJ1DBUBCYCEQZfj5UKsrAruimAkmYCdgsLFuKUoXU6FUu9PSoX6++9/xLhVZ/DuMUGhQupTwqpV+Tz/wtd8/vliLCvZUzRbtmfSFqggAiWILRgbRNvE3FRKShqQvymZLZuTMU4m4qQh0VQK84Wc9RFKS7f2gNWeRUVZGAliJIhIAC+csJaSpWXz8LQP6Nr5LLq0O52J1z3NlsKy3RmQWsCqULRXTN4EBOwwzz79KgfsM4YW2Sdz+SX/x6+/5KHqygP4d4Ldf8AALCuCiPIXIqlS5GXnkY5xGuG6DoFQiHZtD2HutxlMOOtaunX/gmOPG8qWLSWUlRXTpnU2fft1onkLC2VFeOftRVx3zcssW7qOcDL06tWG448/lDbtWvHBBz8w7ZH36N69Cccf35cVPxfRtInDbbedhLdQagzpzJy5hFsm/5t5c1aSkZnMOX87hb9fOIz0zI2eaWxHuaOVxkWTnNaISy4+idPHHYzSJXicWXuSpnK9iLmtPEd2FcZNZeK1r3DfPW8z6dZxXHjJERhVjGdrthE3wmlnDuGM8RP4xxXPEYlswLJSKizrf1bY3/z3K3r13r9CN7Q7EBRP/fsDrr/ubZo2yWLjhhw25ZVUhCev2TCXr2bNJTPLIj3dYlNujIP79OWW20+ldWuLHvvszYAjNtCoySKuuW4sh/btCMrhxwWLWZezmvMvGM6dd55FWVkR9933Lnn5G4hJgIC20IR4540fuOnmF9h7v07c98gNfPjB5zxw77OUlRcw6cbRKLvQ2wvWoMRUYmGiFqkpWTTITkJbJRVPV2Gmi6tJlPF0faJ3SzGqfIIH0ErhmaJ9BwblBaiLxIhGSxCnHOPEcN0YvsPNn5YA7VNOPRXjLsDyPVt290ksC1yniGYtmnD9pEs5vN8hhEI2lg6hlEZpg7YclI7xxP+9wzuvfs+WzSCtoXmrTPbq0Yrly1dhkU2kuDHRWCnFedlEylJRShBxWLJoAT98P582bduAhHAdi7JSYf73K8jLz6PXgYfToVOI9h2OJRa1WfD9alavLaBdm/iSVoOgoDzH0bT0DDIzM6scEh31VBZx0hDtL3y7t+kSLBQaywYCngOurx+pcItC2aA1SvtmyUT96Z9002fH93tx6XD7FSVrCQWHHrYfE285h/YdmvLjd2t55YXP+OyzL1j286+4LuzVvQ2jxg5k1aoNZGYn0bxlOlCCwkHcEj77bBYzP/mGYAC0hu77dCItLZVA0EVMlPz8XDbkbKBdux4EdEOQQgJBh7R0xfHDD2DU2F7YoWIsSSYlOUwgGCPqlhNzQ577GJ6vnShJ8OerhAgkhZNJTq4MIBIJ4ZCMqwJoK4QyNuJ6Qe+aMnZP8vVCQC0bbJ2GG22KtiwUQszNQ1lelgelFEYg5hqMMX/6ZVdbWqG1SiC4XbfxKTxjkxsp57MPP+eE4y7kuKPPZtmKrzn7giN4493b+eTz6Rx+6CBmf/09rVuFOfCgDBo2VZ5ZDYXrQu+DuvH+jMnk5r/GxvyXueOusSQlFWNZILaApXGNy4P3P8+okRcwb/4sQuFSLrl8KFPvOZXUDAdjbBYuXMZ/v/2OjIxUmrZogR3MorgohaLiJliBjK2k+6pISk4mOSXFdz93wWiWL40x+cYP2KfL2TTNPoHrrnmVtTlJOCrF8+1L+NTWdJYIcTR33/4fOrcaRVbSEE47+VZ+WlAIJHnH/YmixFRI/X9mJNiOxKuxsVv5OxRjT+nH2LEDiUYNY8f0QqwAgdRsjEnGOCk899RM3nr7OS64cAgTJhyHSDluNBdLhUFZhIMBMjNTSU1uiuU0JuoU0zCzGW1atMcpt0Ay6Hv4CJ586nhKSgpo07yMlJQYSsUQN4IGLLFx3BQ+emM2M974hksvP5q00CbKi5J48N4ZTJ36NJdcMZTrbxi+XXtlclISyeFUcMsRk8rz0+cw+bbnWLM+h4suHkU4WXP/fc8SCoX5x9Unkhw2KFXqCzS7MnZBXNcivyCfq/5xGrZVzgMPvcmbb+1Fu46DSUkrB9zK3C9/csKDKsQXN6zvTnMGVBQUBEJCWlAhBHnppc+4/NKHKS51GXvKEL749ilSUkqBGAEFiIXggBZENJ/PnMuaX66jV88eZDUIkN4gSHFxhJf+8wGPPPQG4bDCBU4ddyS3TBqF64K2fG9mZTP32xXcMuk+NudaPPrEjRx7fGeggKSkGP+8fjjXXD8KVBFGStB+BtbKRxAwBtu2CdoBlESwlGb//brz1NO30a1HC0RKWfnLZtavjfLUky/QMCvKRRcf4RFehXNo3EGiNnpB38aqhGuvG8eFlwzBDgfJLXB5dNrjtGxdwunjD9udF/OHxFZW87hOf1c9GLw4CDGey48GUAH27tadvn0H0LBxYx545FoM64mV2+Tk5FNa7NC4SRYpGV7yH5TQf1Bvrp84ji6dG2IhvPrqezzx+KuMGXsikyZfSWZWmHXrN5V2SFgAABsJSURBVPHNNzOZO/sH+vXbH4ODEcXmTYZ3Xl9CyZZkrp94JgMGt8boDd5+Egch6pvPpFphQcRgxHO7j+uvhQgdOjfgnffnc8WVk/jx++UkpwVxXIiUCsYIth0AuwFiBBMr8Api71RYggalCCRrdDiKUQ4ep9Mopb1xjVs24v2KC95/UthGpCJpTO2ZXqJ+y9sjKmUhJoBIKgVFET5+/yPef38GS5atIycP8vIUkZjw3AvPYaJgYt7G3gFOO+MIpt5zOslhCxGFZbmEQi6hUCqaZEaNPo2C/CTefv1rvv/hUw49rAPvz/iAlSvWccM/R4GKoAmyfl2Eu+94m4ULNvCvm86lT9+miJVP3J+jksNU/1QiVO7VlOe6JEpw3AD33PsSd945nXMmjOGttx8kLTPEM0+/x91TpqOVYcnihdw19UU06Vx02TA6dW6GiO8ytiMi9PPpiQhuNILriK/HC6AtQVuJ7jxUKOc9FzTtOxCYXVrsf0/YIhoj+JFWcY5X03SqTrGqEFF8O2sON//rWWZ9VYgVtGjaNJXOXffjhJH9WbV2M1998SWXXTaOUScNxhJQAVC2YJwCXDcPYik45el8PGMOn3w4h6ItBm3D+RcO58orTmXNylzefPlrCnLzePzB1zisXy8CAY/wN24s47673ubxaR9w0CE9ef3115l86xzWr8snN9cwfORArv/XWDCKotItNGscJD0pIfAm7tPm/+I6DjHXwVVQUu6QV+jQbZ/OHHZ4R+xgARtzIvw4fwk5a4vRkk771vtzSO8CbrvtJVaveZyrrjuWgw/p7jk81crO7HmUz5m9lEUL92Phwvm8985XnPm38QwfPhiRTRiRCs7nuA6OGyA/t4ykoCYrywbZ/VyAvyUSlt3E2Ned0R1VcsA+fQ7k7feOQatGGCnFMUWgykFrXnrpW2Z9Ucjmgu8QuyVRN4ZlLFTUoEVhi/B/jz7LJZdOJ7thJiNPGMR5542kW/dmuBTjuBEGDunJTf96lmmPvsno0SO45JKTUTofx01i8YI8vpu/Fh0SVq1ZSyQKKald6dBaaN0iQnqoGetWWMz48BNunfI0l1w8lEkTR/gCQvxJvFQSWiny8zeTl5dHqzZJJCcH2btbK95961NGnziJeMazUDCJUDCMY8pBu4wZ15+uPbpyy+TpvPnmMjp1aU9WRoiAtYN9n4oBEYy4vPnGHN54Yw4RF/bpsRf77tORYLByVngTxCJkZXP/va9y911vc8H5Z3DRhYeTlvKnJb44dmUTUblhhhxcckC7WJaLp5BNpknjVJo0yqJg02Ysg6+MiCHKy6CpCDB8+FBWrk5hw8YVXHfDMLKzS3DcRWhlEVBp/LpqNUt/XobRFjGJ4rrFoGLogNBvSHv6DroNVAwhQjQGxndiCAQCWErhOEKDhv3p128/2rVL95e7GInex0ppjCiWLlvO0qVL6bn/PmhdzNhTejNq9EA25JRQVFRG0+aNWfjjUl564V1atkr1A91L2b9PI0aO7M+dU5+mceMwl1xy1I5HT5dx+pmD6dK1Ld26dSY1PYnSaCEdOrUmJVUjUoyIxlIWgqZoSzHFxcVceOGF5G5Kxw6kYMwuxoL9jtimxwkh1Nu5pIZlWZkqxWQA1q0r4vt5a/hs5hIK83Np3rwTivIKhmmJqriucfMQnTsGKCqMYCdvwbWClBUn8cj9M7ll0r8ZOGgfXn9rEj17duChB9/gsIPPZ8IFx3D5lccRsDajVIHXQxGCSqEs/ybG+80G2reD9u3CQDThOSq3EQZBNKxZu5HlyyNEYo2w7QIs8gkF8mndKn7NSg7vG+DwvsP964u9rYTkM+aUVow55doahr0qNDE6dlZ07BwPOS0DgkAO4nr59WIxm9y1ULLJJTXZIinZxY0UsmXzFtq1CpCZEaWGpFt/SOzx6dK8eSO+/341i5d/yphxhzP2lGPwlnjl20YrzzVuOc2aR+mpUkhN0SiJkZIcplfvbB598kxOGj0EV/JQaiPnX3AEjRvYfP31tyz+qR09elRGr+16fIcgpoyOHQK0axPk9psfY8Wyufzj+mF07NCc6idd1cm4SzqCGq2aGiHIzRNf5KH7PsB14F8TT6ZlqxaIcrn1ltEkJZXtVA7CPwpUzvpvJStjIVpF6zxABEDQuFiIgKW9TCFKLF9giyVEr3mB40bZxJWpao87uG7L+UQZXGyQNGzbAkoRJ1oLQWzPwVUWygqgCfieNTFExXAlgMJF+zHKXv+338s/mkdzZR0O8JhRHY+vl5w/hmg/zZdYVHALSQwqijtGxXyz/W80TPFSBsr4/su2H8lVhnHBwvEdGnZ1YBKUctXWWfScBGpuwctw76oo4PpxvArET7lby679Xn6n2yN6W+LiuRfIgZGQL/XFHSi3Vq3sLAeI2yOthMvciharMjep7MpvMkrKFzbiQo/GQrDE9YhN8DMd7A7iSlRfKNuVXsYTwfgaiXikmVSEsCVM4D8Yd6sJdiW/ppp6Zf6B/wVD4nbhTy4lJCbt2f0Aol3Rl27vzHj9u/h14vvxxVVif07/Ftu2bbRWnkbfeIqR+lL2dYG68XLecbt/3nel165b502kP4mYnrj3+l8Kb/wrwm7erBmw/bSqOw+p/CgQwsRMGEzUy1EsJl71isSlyUtO6bmmKzSOa+E6FqFQAPASOdpWEIXCdQWtFUoZRMoT2qkMXEIUSgIgdpX6uzuCsoIs/Gk1K1ZsJDU5iVYt0mnfvglKC15EmQEdSfBYSWxzV7mdv2z6uf3iVeQ8DYCLUXXFGeJ9i7t9xSMAXRAvu4ERRW5OKSuXbySvKEZWswy6dcoiKyVYWbasjmDXXa6TOBJegChmz/qZWya9SbsOTZly13gsu9IVvTIrYLwPQZxYmPJyxdx5C3jt5Rn8sjyP/gN607ZDYz797EtcY1i5Yj1BO8SJJ/XhlNMGoCo28hYiYcQE/RcZ8128jC/01NxzARDDpzN/4MaJrxIrg4suOoorrjmOlBTtlYxSfpX1imJ8daFfixOBV9TPVRZIGK/CexlKyusgpt9zkvAsSgFwM/0x8gUuXQZEQUJ8MvMb7r5jBouXFXLi2CFcefmxZHUJeMfrENvK/rIrylmIzyQxNm4sjHGSUJJKr/0HceqY85j54Y+MHz+FV16bw5PPfMLDj73H+zN+YkthKmLSAMUbb37DfvufR+tWYxl78u0sWlTIiJPGMHDIUD7/chXPPrOQeXPK6d3rJJo26cOCHzfj5YG20SSzfEkRV170BG2ajyMr61Q6dvwb99z9JcZt7nkX1/IFOjFo0CCLybefw7UTTyM5NVg5OCgwqdx39wcMO+4mPvx4MS7BXfZe9pr1J6wEMLEm3HT9DBo2OJ30tJPp0O4snnvhG7QV3mEzNd/Cc0ooKoXJtz5Nhw4nk5Y2kobZJ9O7zxm898HXIAEsrTh5zAl88+1LzJ77NoMHD9it+9YEWwl+fID/i9o2nUzt4F3x7NNfcMF5T2PZkJEVoFPnZvTs2ZXL/jGGbt270qBhOsEQhMIBnnv2Ix77v0e59eZT6dxVM2z4IHI3p/LKax9xxVVj6d2rG7aG+d8tZsUvvzLujCFMnTqeNWvWcsfUxTjaxiWMkQjiRpk3fwFYEV56ezJ779+N996exa0Tn2XjxhiTJo9AqS2eykdvPymjKJvymE2TZi1o36kBdmCL52CqFEaF0KoRt095nVtufpWjjjychlmdwAQQ5ewydxLt+oTXlOv/OZ3C0hJmzZ9G2/YNeenlt7jjltdYuxYuumggoUDZbnBBmw8//IoNG4t4+NHr6TtgX4Jhw9RbnyF3vVBaAilpLqK3QCBCcloytq0wcVeaOt5i23WeGNKCQUMPYtJt59O5W2MUSUg0jR++W8TMTz4hP38TBx20H/0G9sKJuijtlb9CHHAN4ipWr8rniWkf8MKTn1FauoXklBCuE/TXzRjLVy5l8eJFHHDgAcQ9KpXSjDx5MCeOGkK5RCFQTjBkkZQUxtKO51unNYjUmJFL+f+lpqaRnpburYZ+snRx0pk+/Quen/4eWmuaNmtI0+ZZdbT0wpx5X/LjovkMHHIQrdsmIRRyzNH9+fbzdZSWlVFaFiUU3EH0XQ1Q4nDi8P6MGDEI1yhEypFoOspJq6jmCQFfgeMp313XYPZQRaM9Ytt13Aj5+bm88Nwc7rlzOstX5AGQkaZIDoV4/tkZdO/ZhgaNG9C0eSZt2mfgqjxPgDARcnM38Osqhz69u9K+ayZFReUUFkdJTrH9NK8KJ+aSszbCyiWGNu2TsANRjIkgkoSts1m4IIcXp3/FlsIYnTq19AQECSAiXg1ey/VzMVc3sMorf5WcBPipPlSYhx94kVsmvcywESdxYB8hq2Em2dnpiOTu/p5Mu+zfuyPPvHAFgaCF1g5KBSgvMZSVCi2ap5AUDuM5Hew8vP2u9onMYJxMbN2AD9+fy3tvzmf8Wf1ITU0B8WqTVD6P+DkA616pU+fEd1CfljTI1JQXrmTWpx9z7FH7cc2152NbFooQ385ew9SpT9O+U5gbbhhLeXkxYm1B4mUKbEXfg/fjn9eOp3vPVoDLgoVLmHLL815OYYSmrZrQsWsL3nv7Q4J2DpdddiJdu7RD2em8/MI3TLxhGr+uK8Z1FGeeNYpjjzkGZYoRo3nmyY947c03OPOcozh++EGIVLMEK0hOSiY5OQVwEQyxmMuY0wYw7IR9yc0Rpj30CcmhTIJB5S8eu5M80dt6W4EYaVmCEQuMjVbJPHz/dN5/93NuuPFcQqEQu0p8FdKt0Xz33xVMmfw6n32yiGjMJSMjhXBIY1wX2/bs8bu8f90J1Dnxderclo6d2iEKBh15AEiQdevzKClJY/XqPK677g567NuE664ZSXrYISPJQkwEwUI0aBVg1a+befbpz5CnNIuWzKf/kO5cec05lBUbCgoaUrwlwsiTJvCPqzNo30aDlALlKBWlZZsIo8b0QNuZLFqygjfffI5PZn7ApZeO4tRTjyC/MJfZ/13FwYevYbh2wIifkbMqQuEQ4XAYKEErTTAQo0GDAFkNWrJ86ULWrF1F573aV8Z5+ARY1Vmhti/QIMbPjaUANLbO5OnH3+c/L3zMyWOP5tjjuoMqomKbFA8s36n8ep4qKzMriYMPbc8++7QnGLb5+qvZXHbpQ5Q6lzH+zD5oilCisSwBCaMkuEccK+qW+EQqxkYr0MpzEfjis3lccskjRGLCuDMGcPOk8SSH/b2XsUAZtC4HJRgDBYVrKCkJM3DAQYwaOYZlS9dw2w3/x+y5y9mcX0LQBsfA2NOO4PbbRpOe5lWrFFH0OagH+/fugYsDKonXX/mcm2+cznc/rGN4WTl/v3wI5106EMuO4rqx6q05gp9dofpja9asZePGjQQClrckVZi9rKon1tri76fbUK6fnyuDxx5+j9unvMjQ4w7lwksG0biJBon5yb+0Jzgpx7cO1DJCzs+k2rlrEy656ngEC6VB3JFcdP7jPPLwE7RqFWPwEb2851F71tZVZ8SnlPLrigUQCeIagxMxxBzo02cQ488wLPjxW3p278LU257mp4VL+XHBaqIxOG3cQK6+7lRCloXWXh2Ny68aQ/v2zbF0kK7durLy5zJat+vKLVMmoE0Bs+csZuHCn1mzah3d9moKBFEmhDHKcw+zHFAxshulkd24AZFYlHKnjMxADO3n3tvaqwY8NZNgaqxNkr+5jNISQzAYF4I8W+vSRZtYungT7Ts2o1PXBgQCtRNE4q5jxrVwYxlcf90LPPfcp0y86XzGjz8Myy4EIojYrF9TwA/fraRlixbs1b0ZViDRKXYHEE9yNY5B2Qalox4DsDRGQ0lZGdGo314tvG12F3VGfCKwcOFCpt7xEm++vg4nSkUppkBKEqI9JeWmzVto3bQpltWagw/thLYNLVt3QqlkUEGMAyVFwg8/bOTjj+fx5htfse+++9O7d1dumTyNSTeWcdUVY/jisx8o2FLKhLMHYyhnxkezef2VzxgwsD/HDhtCQFusWr2et15fwE8/bmTQEQ1p3KgxSgo8wQYHE09S7nMuI4AriCt+Ga6tdz7eA8WiGtexsBQgcaHFZdnStUy97R0WL/uVa24YzkWXDMWLMI5bFGriIxaxSBITr32ezz9dzn3330C/ga1Zt+4XNm/OJX9zPm3atGLpgo3ce8f7zJu3gmtvGM2Evw8klCS1uIdCxObmm54lK7MJ48cPo0HDNASH99//gp9+XMqEs09jQP+DQRy/8KGXbHxPuZVUQ3wKs4sF4dq1b8/ZZ49h8AChS7d9yM7OplGTNJJSk/j3U+/w0IP/x/l/H8zppx+FE/NiJ5WAVi5axXjztVncdddzrPxlIx+8P5e9urbh9HFHceywg+nQqTn5G7cw9Y5neev1b8jfVMoFfz8KY8owJoxtWrBkgfDUkw/RuNm/Sc9QrFtbQlkpXPz3kVxzyWiIujz46Cc8+NC/Oe+Co/n7+duWv4ojEokQiUSqHBGfWxpXU1xURElRAWJiiPYsKEOP68WQwcfzwN2vcOfkJzBuMpddPRhxSqmJ8AyC4wR58rF3eeXVT1m3oZRTT7kMS3thrXE3qVvvGMdFF5/AoEHHc+M1TzD5pudIykjh3Al9EVPi97L6FCAeeQbYXGBx1x2vcO8979KkaRoFm4tYn1PEGWcez/ARPUlJ8gQn0d6qEI3GMK5b87zZRdTdnk+E5HAShx66NwcdHOcRmxDZgOuGaJTtkJas2Lh+JcbNQ/lOmkobtGgQi82bN5OTX8DwUUcw5bZzaNHMxnFLQClizkZGnHgwq9cVcuedzzHhnDFcdsVosH5FWS79juxC3wH3sXhhPs9Of4cly5Zy3nn9OO64fjTODqDY4um2YhbRLRq3LIBWtlcYMO5H6G8dtFb88suvLF+xgnbtW1U+o78vGzPmCDq370DL1llA1C+yB6gYgdAmLr/mRIQITz7yFNlZ5Zx+xtH+fqt6HmIHAmg7wIgTh9Cp44E0bNSKdh2aoawIdlCwNbhODCuYR9RsRMLFTLxjNDEpYtq9T9GskXDc8EPxKholCjwJUAK6hCl3n8E/rrmEGe/N4913P6Jr1yAnnnQ0ffs1Iz0tisLxhZlkjGsTicRw3N2vll7tc9dZSwoE14/UrzSMozSKAI0aNaFFs5aUFLooN+jxViVeLCqg0Iw7/SRisebMnfMNmSmFaATbUhgT5O03v2HSTc+yMTdAs6YNeOap6aSlrOeGG0fh5U/Ow7I2sVcPxc09jsDIMaBiKLWhYmm0EP5+yWFccPFAlBKMieGZ57zBFTwCNCgWLlrEgp/accSgVgmv0SCqjOatk2jeqgfgYChFE9/0K1BRjOTRuWsDOnZshXEVIl74wPaUgY4TAeXSpEWYJs1aeQpetdarjaJigGCLBaociKF0OYYYF15+OoFQjEhkx3szJQptLJSU07ihwymnduGUU/f27N4qgpYoyvge5wJiAvy6ciOFm0vRKstX5sf9B+sGeziASJGzrpC58xbw8Uc/sm7dKoYeNwDREVQ8PZlJGDhdhKIYpQVXg0OAaCTIIw98wnX/fJx+/Q/kgQfPZr8DOzLtwf8w7ZHHSEp3+NvfRpCVEfbHRsAqBJ3rGdDjBWd850slrv8SqcIc4oX6jHipdcsjLmXlW8948SRM7RKv26apLCkKrle9XGIMG7Ufx43cHzGliCrGy+dcvX1WKd+NX5WALkYLXgYCEZRRiNKeez8KURaYALa2aNZ6CzfdPhIlEajwPLfYhutVPKF4RRCVAbWlkhuL7Wfj8t+FaDSp/Of5ZykosDhySJsde2XsAtTGdV9Jg8wlnvcHApLkieCquC6aR5RFzLWJxhS2bQhaDloUXpyvN8DegykMFkLY56JloDxrRCzmKSCCQeV5lqBANOVlDrFYhFA4QDBg7YaS14MgGCXkbirjoxk/8OP8n+nTpysDB+1LenqQ6jQv/3MwyXzz+Qq+/GoeW4qLOG7YEA7o3QbLKsVLEl93RLgN8YlJArSfh7gq4mYWS1u19nyJl7+KzyqP+/jxHMrxiQ8Q5XteKBLLX3l1xgStPbNQ3DUqXiMY2AOlsP7CEA0S8v0IPaagtONNvDr351MVjkI7gEaroG9kj9W6E4p4GtnEuzgVXysCdLwdu+8HmpDCIsGCoBNumUhoUlHFsjpla00DpvxlWSHK+AkqDTohwOkvByWgylDKxRJvyfczKFHXIq/W2gLtmXVcZBu9a2LKs6WL1/PhB995peB35nlQaNFoUTvcOig8Itv6s+MtR1zXtfWnpgt9B04dRSkHixjWX5nwgIpx8013Srwtz57Qtej169f5S5tHJNtXKSrA38D/xV/P/zbiK0h8FdnRBN516KZNm/luRrXolPr9isTV438PmmqysdeMuvduqMdfE9XEcAjr1xdw+5S3OOvMh1m0tAACAXzN4045CtWjHjWh2nW0YeOmHNDrcBYvKeOC859l1lc5yB5ypa7HXxfbEp+CgBVhwIDWXP2P4axe8TP/fvwtn/H9SSLL6/GnQFXzmor7lhkUZaRnuDRpluUXNgl4p++Jkp/1+EvCq1ZApX7N++65BZSWFLEhN5eoE0B0KioYZIdVG+tRj1qiRjbWrFkzevTYBycapqygIRJJqed89agzbJeSlDLsvXdLjh3ai/ff/ZTrb3gSpdpiSKq3odajTrAdlyrPlhcM2Iw99UgiksGVl05l/rz/8q8bRtdnh6pHnaDGNVSMzbtvzmHitQ/RtVsbhh6/H4FQ3F27HvXYPdToTLpw4VJefPkdDjqkF3fdczFlZavIWbXyt+pbPf7HUSPnW7d+Pd//uJCsrDBt2mUR1GHPF68e9agDaM9BU7aymSlQFioQJBAKorQXN1Dpk1e/56vH7qMGzqdICqfTIKMRWosftyDbBFnXox67iu0Qn0YRJmdtlJycGJ06daasrBTj1pvX6lF3sMGXXRME2O+/X8Gtk5/nw/cXccxxfTl93EAsy8a2g9W3Uo967AJsy7bQSnkJuQXA0LVLZx564B7CyWFSM2K4shmFgxsrwyivTlBlHuR61GPXYK9Zs4asrn6UklgIilC4mHDSZgDEeDVoRVkouxg7uBOJaepRjxqgctZ9KdkZi1HaJR4PWxEc7Z0CSiEKL9G3qwmEivdEDHE9/mKwtVIJ5jI/NVYVwqpMi6rtcixL1xNePeoEtlIapUAS93Bb55ghHvK453O21eOvg3r/qHr8bvh/vB4rCzpMYlcAAAAASUVORK5CYII=;movable=0;resizable=0;rotatable=0;deletable=0;editable=0;connectable=0;" parent="1" vertex="1">
                    <mxGeometry x="100" y="150" width="159" height="119" as="geometry"/>
                </mxCell>
                <mxCell id="7" value="" style="shape=image;verticalLabelPosition=bottom;labelBackgroundColor=default;verticalAlign=top;aspect=fixed;imageAspect=0;image=data:image/png,iVBORw0KGgoAAAANSUhEUgAAAKwAAACOCAYAAACsVePlAAAgAElEQVR4nOydd2BVRfr+PzPn3HvTCYHQexUEEQsqiCI2sGEXsIC9F+wVC4KV1XV1Fb+6KhYsrA27omvBgoo0sYv0FpKQess58/7+mHOTm1BCCcr+Ns9uMLnlnDkz77zzzvOWUabiHgEQQJQCFAoBUYhyQPvsiLDtrftzClCy8Yts7BJ1X1uxoW9v9F7JGyKb1e4twYbuWd/32FHgisqo+kOl/GYHWhDjBq9pZKPDm4QEP1uCDQ/89vlWEptuZ9UM3ooWJL9WW4ik6kXZ8i6qA1X3TPm9vu+xddi2UdoQXJRGREg+rlpPCwQ3FQUq+eLGeqP+G7h9UN3O7TWuG9Zw27d/dggZ3c7QSqd2oNoMLdqABvx1cMWkLiiBJpUUTaq8/w6l2YD/CbhijSsARDSiBLRnXxMHrcLW9FIC+PxvLDybg61Z3rfGxm9AKtwaproygKCUQlSEdWVZrF4eJxxJ0KZdGEfWbWTXva22WcNANmDzoKsFRQBjpVHS+PLjpRx5yFXstsvJ3DF+Mkq5KPW/YhsEfbHVPw2Tb3vBTf1Di8KgWbhoLVOmfk6LFq1YuHA8LVo6+KYYJZsgNP+/GqS6Vgxh08+sN/D9/9/66K+Btp2b/LFYtmw1c2YvIDMrQl6+i886IP5XtXEHhKJmv9X+gQatu32gN/TiunXrWL58BY52MMbD8xIb+2gDGvCnwt3Qi2WlhlWrEhgxaO2gVKrmaNAUDfjrUCWw1sLSlJb5LF9bQbtO7Tlg8B5oiSO4NNhgDdgRkLLOK4xkMO31n7nh6mfYa7fujBx+IOgESsdBJWgQ2Ab81ahhmM6d+wsvvfQhe/TdndNOOQFHl/1V7WpAAzaIKoFVwG59duL6a84kFIpx+/gH+PabxSiJgIRBQjT4aBvwVyNFwwpQSr+9srng/P2Z9d1cHp70GmJclKiqKK4GNOCvRE0bFo1Rhswcn+YtwhijMMZFNVBaDdhBUCWJqRkHGRmZNGnSGKU0Bueva10DGlALNVSnjYb1aZyXRZu2rTAofEfhK1DavteABvyVqLXWWzdi06Y5dO3aht9+WsW7ryymeHUzjJeJSINp0IC/FjU2XfZ/0LJZLmeM6k//fdMYc8UlXHTB7axcVv6XNbIBDUhCeZUPBzl31iBQykOJDe4wRPBVCHwPLR6OjqfkdTWgAX8+qlyzdrslQXqMxjpqY2iJ2VRvJfBfZRLUlTDZgP9GuNZuheqQOagZ1A014rz/p7CxuNi/gpPe3KyOZNtqT1hV67X/zgHdYLRWA2DHEtYtuW+y3duzjamT4M/Ff63ApuaVbXuVk5QBEEHQ1llSI3ltS7It6rP+QFL4UrXmpsyd6tVRhCCtSSEiwfbjv3sPsp0EtvaApXZ4cgCsKWJjbaE6+ybVDFFViZHVr9tQR9FxEI0Sp9a9fFB+8P3NtblVUEzERykXxMEoE5Rp8lECWhw0CsHD1MgsULZOjkpeoz4RPJcyQQc5kHxetTGNa/tWxAQC64LSIEnTz2zgO5sPUcmCKoKSoEaQEkTMBpqzPSq/bCcsWrSOjz76gfxm6Rx22N5oTDDbBRHP1jtAQAnGOPhE0DoTR2ehdRO8WIRErAQnUoZyDdoJ4+gmmAQYfyGwAqWC9JOUPtEqjPHTML5CO371fTYJhQ6l89CDbzPpgQ/ITAtx9Am9OfuCw8jJyQQFhjCecUBcRIXRTghHuyjtoJwIiIOfKEdMAUqVBwK2rQJsJ6uYCKIiGHFBhUHCKHFw3EwcJwPxBeMVIqwCXYlIhPnzCnnwH/9m7rzfWb2ykutvGMmZZ+2NQyWCDryaW9JGq3AM6YiEEREciaGJB5Nne5shFoHApm64tgYKcBEcROwsLKuM8p+PV7B06WIaNWrHgH16V2kghQ8qCsQQ5VNZkc6CeQkmP/kqb7zxFqVlhYiCk089mJatWzBx4tN4PngJcBRccP7B3H7nCWgVaAvxQRkSnqKsLEzBSkVaGrRpm4ZSdYVIWmk3vsH4UFhcxBGnHcK55x9DVo6D0gl8P4cF30f59utf+Oqrr/nyi29YV1xGPO4RTxgSPvg+ZKQprrzyWC6+ZAjp6UlNtvWDKOKCCSOSTUW0Cb/+so4XX3yFt995j1Wr1lBe7hGLC65WXHjekVxy2RBatQ3jqAS9dm7K2FvO5Nlnp/PUE+/jC4BG4QQt2tIJZbVleUka8+YU8sknM+nYtjkHDO5JfisDuhIMaJUquPVvfqRo2K29iUJwePPNmXw3s4hRp5/OmoI1fPddAUsXr2L2d79x5BHXEQoLXqAMc7OzOevso7ny6qPRupS33v6A6655Ds8oTr9gMBdeeDxNG2cw7/tfuPfe1xgytB+33jyCzp278c9/vs/ChfODCa2ss0M5QJiEl8nDD7/P+NueZMxlxzBuwnF1tt3araB1iERC07xVa3rv2pmsRtpqcNE4Ooc3pn3Cww8/TsfOTRhwwM506tieT/4zn7322ZMrrxlOyDHcNnYyTz75DG3b+YwYMYSaApFqDtUtKAZh5rc/8PA/PmT6ez+xriSKG4YWrRy692jBWecdw6FDh/LgA6/z6COvYJI2qgAiuE6C1i0jnDLyCObNWYPSIVAuRrDFUqratOm2SGB9CJAgg8vGPMQbr31CixYRigp9PN/w0MOXc8xxu6B06sqyfWzloJCGw5bPuJooWBPnzrtf4o57XkI50GeXDgw5bE+OPHYnsnLSaNokn+Yt80hLC/PK1C/45uvF/PJLEV13cjn+pMMor2jMSy+9yX777052ViP8hCFW6VOyrox27TrQvmML/li8gAU/ziY9LYIoB4OHEse6jCWLxya9z+13PEGjpnk0adYIQxytZCMlMFPtK/tfzxMys3LIbZKFUn71+w7gKM4+fzTX3DACWMe3X/3A/Fm/0iQ7m7AK4ygh5EZo0rQpjRo1tgNXu6DelkCsxRyLl3HQoZ04+7xh7L5nD0IRH89PALn83z+nM+3Vjzn3wuO5bMxhtGyhUBJDRFkblhiRtAzckMY3vs3RS3nezWUd7GbN5Z7xTzBn9hf831OXcNQRAykqCnPBeffz1htf0qt3Lt26Nq3Rn9sDLvUVjaXg4EP35rY7zqJrjzwiTh7iNWXNykJ+/eUnSkqLCKvGdGjTnOyMeYTDhUQiEbT2gDi+iVFYGOflqXN4/KEPWbFoIS3a5pOIpuMohaM1S5YsYeFvi9it794okwmUWg+dn833swv55otfcAX22L0HA/fra6sDbMEcFBTZOTk0yskNnsmAqMBg0kg8g6IV6fy2cClvvPkD38xexFdf/8bj/3qBsuIoBYWVHHBQD1q3aWX3OckyUMnN35Y0Bthz914899yuKO0hGKAS8QRXIpRVpDN/3iqOOOIAxlw8lFYtFag4GFVVl1EpRSgUJuS4KAy21JRhfYGta3W1ry9ZEuf8C0/n0EN2QUwROblNadcuj29mzmD5stV069Kc7V3Oqt42XUqBMXFi8Qqmv7+QuyZMZt68pSglZGRYC9mPwa57dCG/WS75LZvRtnMI0WX4OBhJ8PPPv7J8xa/s3KMZPXfNA9cjLiGyG2Xg+0K0wqeyPE5JoaJgpUPjpuAoh6+/nMM9E16lU+eeXHP1Ocz/8Wcys1xrM6ug1i0uSmlEfKRGp1YPkhEhEkkjPS291rN5aBXjgb//k0cfe4C0dGtPR0K5nHPeSYw4eTB+IsQ997xIenolbdu2QYwJdudbJ6xaCUp5gGevocBgwGRj4q0YP/ZRigpXc+VVR9GmjSBUoKr2n8r+Xym0ViitQCtQyRq/tem6updwMYYJd51OOKwIu5aFEROiYHUJzZo1Ja9xXnCV7bvxqgeBtWGHo087mDNGn0DCr2DViiymPD6eth2a4WtFLC5MfvJtHnzkGQ45ch8uPPdIlIkjJqjVpTRaKw4YvDs33nwGvXZuR8Hq1axYuZZnnvmEkuJKUCEOHjqErJw+fDz9S35bOJ99WnTF+Ia99+nBK2/2pqAgyr0TX6N5s1zatmuEcspQQLRMM/Get7n7rn8z5qojGHvb0SjiQcxENbRW5Obm0ig3F0W0SsaMX0Fe4xDjx1/MmecOwXGj/Pvf05n81HRatmxCu/YtmPHZXP74/Xf26d+R7KxskDjgVQmqQlvTRVmqbIugDKIgLtnMWbCGcTfdz08//sAtt5/MLrs3xSaI6uRw2P8YQZTCcUPgOIgojFiBqtqsbs6txQZEKQV5OT4ajS8KUdmMu3kS77z9MXffex47924HRKlpF2+HTZeqJ/5QKMeYShwFLVsKWrm8/c6bPPDAVArWQFFRGRdcdCQXnH04ripFtEFUwLWiML5i+ruz+OC9b/Hj4Aucf9HxTPz7jbz39kccf8ylrFixhlgijeEjD6ffPj0RVY5yfJRWiCjKykspL60ks1Fj0jOyEakA5ZGeEeHoYfvTuVNHeu2ajxaNTfpZv2Nd1yXshlBEUx7OJz09xOQX3uH5qVOoiFawZlWcoiKfL76cwKWXTyBeAX4CBu7XgVA4gcYP9j8BR5nSU1sKIxojDsuXlPLAPa/yyX++4Y57zuLEEwagpRzLiQZ8cBU2VS6ptru2LsGq1sKifJTO4/Zxz/PUE9M597xhHHxoFxsYJRtyctQv3Hohu0UQ8TFilwqlFB4az+SydImiaYsm3H3/GAYM6IgmiucrxLg4jkbpSkBjTIgDD9qbcePOp0e3dvjxciY99grZ4b1RaAbvvxdjb7yeopIKFi+dzZy5s+jTuwNaaas5lCYWi1FeUUlGbmOUCkozK0DF2HnXLHrsupO15SROsGamPEJtwUoyCHaQmrVsQouWnWnXvgOHDj2Qr7+ew0fTv2D4yGGcdOJAtFuCVh4ia0GKg7HTaOUE/WJSnCCbwvobIoWmrCTE3Xe+xL+nfsx9Ey/gvLP2xzdFmzQ1aryjJLDJU23YLdkMBoqFHG647gmeePwDxowZzVnn7k9u4xgicf6MvD/Xuuy2ZTbYgdeOg9IhSzGZMKUlQl6TFvTrvxclJWsJu2m88+ZcZs+fwxvTPqZ0tcc55w3h/EuGEQqHcFxFKOyjQoWocDquozj+pH1YtqKQeDzMPfeeS1wK+GbWz5THNeFIGK1Bi7GaRQyJRIx4LIYWQYkEr9vIMzEGrSxfGzBZKe23lJBWCq01SttJZz05Gl8M+w/ehcGD9kepEpQqY8myZRh3Kchy4A+MKbb0GJAsw19YWMKSRatp0qQJbdo2t5sivOC+G3PpJv9bLUxG0rl9wvM8+dQ7TLj9HM48YxBGSlA68BaKsq5kBINlN5R2qu5ifwk+ox277aoiMTaHMQjcuyguOP8BJj/zBdffOJrR5+xHTo6HGC/wWPps2STYcrgmaArKDvzGJ2xSQ6iqZTxpr3w3ew4PP/IC33xTyNIlUF5mlZcoha8UbijCvJ8WsvNO7ejcqRPDTzoPLxGj8055oNIx2iHhK4y4LFlcynvvvMiMT2YwcP996dO3PeNvfpjcLJ8x1x7DZzNmsWZ1nDPPOASlSoOtuDVrotEolZUVOIASH0MCrRVGNCjHkuZS7f0KWFzADrURCcyj6iVWlOCIwWEt6LWB49NqTUUIpQStKkHF7TMHvaKVy08//M648a/x2RdLuOLqY7nk8sPJTg8TEh9RiUBGajtsUvlay5nePfE5np38ARecO4wTh+9BKBy1mrLK9SwBtxowAaLBJMujavssSqEIgzHB6iMB9ZYsVrdhJGMRlArx9FOv89mn87jjjusZfeYQMiJFxGMlrFpZQqNGaTTODQfex+0HV+lgpgcUzsZnSAo9AyQ1hBGhc+fOHH3ESLq0q6TfPnvQrn0zmuRnkZGZzjPPvs3D/3icCy88lFNHH4mROMncBrv7ruTVV7/m3r89w7IlRbz99ud0bNeSo485mIGDB9GjV0sKCqM8MPF5Xn71YxYvLeC8iw9Fqyg62BBgrDb1vSi+V0kiniAej+NEAuemn87jk95n0qTJnH3eEM497+j1njAYFmKxSqLRKEZMLZZWUj5n2QZjLNugqoQ++FcJvvLoP7Afb7w7hIn3vcDEO5/DdTK48orDcJ3Kjfdxjdc9kAiFa326dm/OkMO706KVi4j13tk4imRsgW81qIRACVopDApj/MDPL4DmbxOf5qUXPuS6ay/i2OMGYCilTu0qmqVLVvHWa7+zcGEZV10zgWuvmoCjgqQqgUcmXcbJI/vgOtFNXGvbsc0sgVaKnOx0hh7RgyFHAhiUWg0UYkwaHdum0bZFU5YvW4hiHVrHQHx00q4Tl+OOOJjC5dl88/Xn3H7XSPKaBEuW1kTj5UQThqWrivDjcOopw7jk/FPRpjjQGtU6st9eO/PyG7uCiiEUI6LAaBSG408YyNDDdqVx0zS0dsH4AbdJ8G1BMHz77SxmzmxFpw59N/i8CstWGS+BeD5a2aUYDEYlC24aGy+Bj0slV186kF7dM7jr7jfIDCe49NKDqzTXxoUlmBpuGm4ozLAjhjFonyGEMSRcA+IhviAmhBdTlBZVsGZVCZ9+Np1efbPp378XOFBWUUFlNIaIgzHCXnv15b23/+DrbwrYa0AFLVpoNpVcKmL3As1b5vLsy5cjTgjfeOAlUPiWOlNhMH5g8litXP+BQBZbILCbsk0UTsouVQQ8iRCL5xFLrEZHDGlpwRIbyIhJqYionXK0U45SEHKNpV0kk28/L2TC+Ed4/4MvGT7yAPYb3J5JD7/K2LFRxt1xEo3zHZSYlM5JoMQHY6r2VIKgnCiN8xW5TbPsvY2/Pl+orWZcuWQtyxaVgKTZumKYKrGSKopH8DwfP5HAiIcJkuHdJKVkjYLgO9aMGrBPD26/2SGvSSYqeYZEnRsUF+Mn0CrOzbf/g+tu/gdZWSGysyM4RKgoj1JSWoHxxdKswCmj9uTAw48EJ0TCZLFqRSmlJWW4jsHRmn33HcQuvX6ke5fmtMhPQ1Fa58gLBsfRYGIoE7NCo6rfRaIIJmX8d3jHgWBSZFkpRWlxKU898SYTJ05l1906MnD/vggV6OSmIzA/LLkfxQ1Vkp4hhFyFNi7RaJzPPvuWZct+51+TL+C4kw7AUMHe/Ttz352vc+5pE7j+liPou0f3GtPIikFygU/adQS+9iDOdQORVMb4RNJ8UJW8Pu0b2nVuwaGHdicI1qp+UhF838NPREkLRclO93HWixuqPbmF7Jw09h24q50Ym72T9hDxufW2k7n4smNYtnQFBQXrKCmpQHyPzMx0cnJyyGucS36zpuRkZxB24yCGH+av4f0PZvDKq58yZ+6vDD28G1DGTTc+hNIOAwd2DBiaVNZgQ9g8TvXPOk5AxaMPS9KGVaICMn1rb17zu56nicUVylGEQ4KrE4CypecD49xqIY0nYYzRhLSPVmKJbj8NtEY5lcEVA7vZdxAjaDdG7XPGrH1pNkL3qGC3LBvQsIqCwnKmPP0ub7z1IYccti+jTj6K/LzMWvIlGPExohHJRGlB68r1r7ceUvnJJEdaW3hT+0/sBkaJ3TSKa+NxJQg5RFBYh4uI1YIini37rxzmzP2Np55+g3kL/qD3Lt0YfeqR9N65PTa+Nx2FAZUqsJsa87re3/50VlVLYpX/DAq+bI7A1kWBVH/XnoeQpJA2NDhU0U5GGXwMIi4OOljeBIMATiB7dslGQPBQysfGdVYT5PZjCrVRqmPjAmvtYQeRsKVnVdy6cc2GjtpLtkUDJtih1xWTEWxaVarg1iWwCpRlL5IfrZlBsL5jQAWirJRjv6fCCBql4ii8gF1ITprkCrR9qaj6xBaaBJs/i0SldkrNgamxWAa8qErudpPUkkraxMH7YmkYSToEcLA0XFJYrXa1sprUQgTf3VADk/Zotd1lYwyi9v5JO0xRM/AqKaxV/bG5fSJYt2zK31XaNvVa1deTQFCTtqHSdnJuTFhJ+baIsZNSolXPgEjN5wDWp9V2bLjJLID6hpKk0Fa9Uv2r1P5g8u2AOqrxvVpCoSynaGlEq4OT0fOqatdfdUG2x7PVxJ834Ju3mVn/uZNOAgmoLiX/Lfp0fWy3FJktSwys1jTVi5r9az2BS6rNYMkU0cEABHlcGxmKVFNn2w4uVrUu8OfYbhtsScrq8L8CtyqbUmrPzPqZgxvi5JK3SmpHUUnb0gqiBP+qlODr5HeSg2SSGlyp6vPDRALHl4Fk5isbC+Cuja19blVToW8R7JNaW1XWIy9S+05UUJlHUu3vLbM9N65ZN2VL71hIyemqjwZWiRoS2KAGH7QfbOjsvRRhxDgBHwnKBPYWHqLAiHUrCmJpIJGq71rPigk2VqkCrtBVz5DUz0lNvYHnUzVjm1CC7xsMEVwdQomH0ok6tVeVwt9qpApLrQsZQIUtK6JAOT6iLG2lUCmZxnU3INXMEgkEXwV8Q9Ktu00M0Z+DejTAkjtOS6+sXFHAe+/O5IvPF+D7IYwi+BF8Fcc4UXwSQec7iAohZGJMLtGKLJYvVRSs8hEvDbwsEtF0Clb5rFjuEY2FEUI2jhbrcUFcIIzSLqIdcHTAeapatvTGeiLEI49Op1vHs+jSfhS33vI0RcXlKBeUQ9Uh57V/tn18lW27CZPq+hYRcBSPP/4Cu+9+Om3bjObqqx5nyZLVdvptoRUgwWZWAh2gRQXBY2KJA2Mj6FgvbX7Hgls/hK9C/AyM3wgdiqCdEK1a5fDFZzO45MJx9OrTjSOOOoiiwhIqK3zad8jn4IN70qK5wvglvP3WbG688SV++nEl6RnQf0B7jhy2F63bNOe9d7/n0Uc+pHevDhx99GB+/3kFec2E2+4+EYjhmHSUn88Xnyzj9gkP8+mM78hulMaZZ5/AZZcfRePGxQHnmGzrhnf2ihC+HyarcRMuH3Mso07bGyOVJBJ+kn9I0VIbk9QtYQ0UxmRw0w1TeeiB17lt/ElcfOlBVcEjSmnEwOlnHcsZo8dw1TXPEPWWg46Q1DN2Y1v3faooNFGICjPt3QXcdefLzP76NyIOXHj+0Zx70SG0bONgA4N2XNTDpstmzU5+7iNuuXkazfPzWblyFYVFRfi+pVOWrfyST7/4kmb5mrDrUFjg8+6bg7nz7lNp09bQq09XBh20Fy1a/8i1N4xg7/69QcWZ/d1vLFo2gzMvOJq/3X06scoSHvjH26wtLkQrB0fCiIR57e1vGTfuRfr27cBX/5jEK6+/w98feIZYvJIJt5+IGym1nGpVmnktai14MRaH7Ox8mjZtCgq01pbSkmQiXt19sWF+dSOfkwiehPE1aNfBEAJ8lPas/S22aIiRMkQqMZ4gXtDnm02tpX7O4b23Z3H7+NeIVno8+q8r+WHB7/zriXfJbZvNuef0Jz28Y/OyrpJk7hFb1cYq9lBgXVkxO/VqxjW3XsDA/foQdkOEdWNcJwdf4uCUAz5PPfYO7775NSUl5Yjv0KpNPt17tuWnH5fiRZtTWtyYuFdOUZEiHgeRGIYKfvz5B2bP+ZYOndqhVMJ6yLx0fl6wgrWr/mCXXXrRrWcaV+58HG56FgtmrWHpkhLadQqcCcr68Dfg57KMr7FZs41ys23WbLAZlcCcsQ9ssxs0VAlxbSt0c7vR0TZuQjQYbU0XLQrlqyA809qePgYjhng0jpfYGg0Y8NfK5d23vueHOYuZ+MClHH/iHmg9iIK1cd58/UP67Z7HgP49dmjWoV5prf0G7MmEOy+ka/dWzJ+7iGeefofp73/Owj+WYgR67NyBEaccwOI/VpLbOER+83SMSoD2cVz4/PNv+eQ/3wI2RabPrj3Ib96YjCwXpYTi4nUUF5URdprgqMaILkFUnIzsOCeesgcnnzoAJEbIySYUCoHj2y2ZuMGkSgruhmI2rbMhKyuDrMwM+3mj0KShVAYJE0KpNMKhNDxThvGLcEhYLrjqels445UNWgm7ilAkF6U72AgsyjBShFYxdErCZNIGrdbiWwDRGBLkNfe4fcKxHDOsJw4V+H4aksJf78jCCvUgsMkh0oAXK+XD99/giks/Z9asJew9sD0XX34Q3XfamUi4GVOe+YCZXyxgwKC2ePEwjZtkYvwSlEQQP8Q++/bk6mtPYcC+vcDxmPnlD/xt4lS0Y+Nu455PeUUl99/7IvNnz+SGWw5jtz17cvGYA0AOwvcqMUaYM/dHvvhiNq2adqFZszyUimJiTVE6go4U40sh1hWd8iBi/0lLSyctPWKzXsXBiMuvv1bw3HMf89KLb7O2YB3nnn88F156FPlNQ2hdYTeOIrV6ZDMggRCaMPff/Rq33/w8hWvXcvgR+3HV9cPZrW8eWpVUu2PrYZxuHDs62LQZxDdAY4yfSY+du9GmbUus0NZ23uw4qCcNaxh5Sn+GjxyAbxxOGTUYrR3SMxvjicbzcnnqsY/59ytPc8GFgzj/zCHYtJQSlGO/D4a0cDZZaS2ReGsSnkd+01LatMonViIIEfYffAhdug6grGQtnTpoGuVolNJ4XhRjtK0dII344K1ZfPjOHMaM6UR6RoJoufD3e6dwz13PcsmVh3PTuGNR2KNIU/xBlnALhwiHQig80Jn8+4XZjB/3PAsXLeGSy04iK1v4x9+fARPhmuuPISsrau2hwJ28Zb1mT+mpiMZZtnQpN94wkrTMGA8++AZvvN6Lrp0OJbdRmd3ZK/uTjE/dcuG1nkAxCXyl0EbhEOGaaybwymvTmXjfKNq0axqEM+6Ywgr1luYNIdfypkYSRCJgjMsLz3/IFWMmUVHucdLwQXw980kaNfbwjUdIOygTRCNhSHiGb75ewI3X3k/HLi3JaeSQm5dGeWkZU1/4nMcmvUl6uoujFSNP24877zoerQTjCyIaUcLMr37n7tunUVBoeOrJcQw9rDNKrSOSEeLasSdxw+2nYSjC90sAVUNc7XAqQuEI4UgYVAwjPj16d+bJ526hR8/2lJUVsXjxUlatKufZ554nr2mUiy462J6wo1SSRduCrrPWr3bglik0kboAACAASURBVNtO4dJLBxMKRyhY6/P4/z1OuzZRzjxjIEolT1RPtpWNxBPUPVYWirjvMGH843w6YzaPPHoJRx7ZBy3RLZ50fzbqzYY1JqDpxebfax2hZ48+DBy4H61aN+XBh68DKaa8oogVK5cRj5fRIr8JjbIctFZo5dBv7524ZdwounRvDirGq1M/5Yn/e4cRJw1nwl1XkJMXZc3qtcz65ju+nfkz+/TrjmBtyJJih7fe/IV1FS5jx53KAfu3QbEOwQPtY2QFxjOWkzWBjkoZmyS3WbX4Kh+I0a1HKz54fyaXXXIzs75eSqOcNLQrxBM+WoUIhTJQbsiaEH6U1CyGuiBVO11FKGxwQjHrzdIG7YTQOmxrGeDYOIAqLjvYIwfxF1UJl5s5Wxw3jWuvfYpJj3zMxInnccSRfVDEqrT3jox6obXARTu5rF4TZ/q703n/vQ9Z8MNCSkpdioocSktj/OtfL+J5djNlCRY44/TD+Nt9pxFKNxjx0I4iHNG4bhitMhk54gRKC11ef+VL5i/4nD37t+fV119j4c+LGHvTSaAclAhrlseYeO9b/PBzEbdMuIC9+jVFU44yYcvFJzNllZ1QG6qtWh2gFYR/G40Rzd/umcx9907lvHNPY9q008lsBJOfeo37Jz6LMcL383/h7nueJSsrmysvP4KOnVqAMpu1eVEq4CyMIEaDiYAKk4hrwMVxnMA9a/vZBqArxOgqYa1JWyXHY8MQNEZCXHrev3jsX//h7ntv4tRT++GYNdYgUjZc8q+Mj6gLbvVDb+XcEuHLr77itlun8PmnZYTTNE2aZtCr927sv//+/LGogM9mfMPlV4xixIiDMX4FvuehlQAlGCkhEY8Qj8EH785k+gczKSuDiIYLLjqOiy4ewY8/LOPFKf9h1eruPPXYa+y/7z5kZmUQlygriwx/e+gjHn5sGrvt3p0nn3yam27+kaVLCylY7jFqxIHcMm4ExkBZWTlN8iNkZgUBM6l+e4IsGV9QxkVLOn4im8qKdHr07Mg++7chkl1Mwdpy5s77nSWL12E8h27denLAoAO4+86pLFv0JDeMPZo999oJpG5Nq3QoOG1S+GLmzwz+fhfmzlnAtDc/4uxzRnPscQchrMLYIkUYT1ASBpXJipXriIQVeU1cIFH3MCkoKReuufJJnp/8CWeefBKVxas49ZQxLFjwByuWeZxz9iAuueRgWrXO2zpZ+BNQLyZBvz37Me3Ng3HdJqCFhB/FSALE4eUXZzDjs7WsXv01iVgrlMRROBhxUMrgKMOjj73HFVc9S4uWeRw7bABnnX4MfXp3R5wiPCnjsGG9GX/LFP71f68w7JihnHXOcIzEUKL5ef5S5nz1G+muQ8HKQlwVJje3M3ldu1PRrAxXpfPbL2W8/87X3HXHs4y58hjGjjsWVAU105ut9BYWFVKwdg1t2qQTDkHXLi156YUKjhs2IahdAFpjC9k5GseBU047iJ133pU7JzzN81Pm0LZ9a/LzM0DpgPXdmPAGqfMCr708k1f/PROloE+fnei7awvS0irQWvCNjZ/wfB/P19x3z6vc//dpXHzZyVx04X5kpCeLvKUiNZvXmkB//LGUFcsL0G6It957h+YtGpOfn0e3TrvRJr+IdNchWhlPudaO50DYdoFVCq0NQjG+WRcUtbWFh0XSadEyh+bN8ykqKMJJVh5RXpWnRlAcP/wglqyJsGjRIm64aTjNcsGTX1CiCLlZFBWWsHjJYgyQkRmhUW4YpcpRKPbbrwsD3ptASKehnTI8P4qIjxIXhYNSCcClSV4eAwb0oWO3kC2+W1sD2vWZX375jZ9+/pk+u/ZByTpGjtydESMOZumKAoqLC2nXrhMLfvyDqS++Ttt2uRiioCros1szjjx6IBPveZJWrXMZc+VhtgbCJpZXMXFOHz2UHj07stNOXcnKyqIyXkqnLo3JSY8DJQGbYgvZ+b5NTr340jMpKgoTctLxfYfqQPmN3gkQeu/SlVffvANNVlAzK46YSkAQ4yF+FKWibHHtrz8R9cISoKRGbp0AS5au46uZhXz2n18pXLuajh17AWBUUMihKkxQaJqXTqcWOZSuELLTY4hO4MWymHTfp4y94RH23b83k5+6jb0GdOXxx15nj76jOOPMw7nmxqMIu1EcvcTqEF+sqZGkf1J2vB26Kjp0aWT/CNgJpawzARQSzLJli5fzx29l4LdC63X4qhilimnXVmjfVgN/0L+f0L/fkcH1iwBwnOWMGtWGUaNutH1gokEVmE3EHKhyOndVdO7WDRQoKQ3MlGKUgK+ERCLC6hVC0doE6emKSMRHTCWVZaVktEkjK9OQzNKtydQqUrdQ1tEXA5ZDUN6pqjXBpk05yUHccbMQnLE3HnYLyRx5tQ0LgKr+EaBR41yWLl/M+9Nf44QTB3PGGUcDUbuspiQO2i7yKSlZRU6uYZe+7W0JHqWorCjn0MP6cfudZ9CqjUapSvru1olWrSP89us8OrbLo1l+I5I1nVKaYINVkn8r20D7elJYpOoVUHi+sLJgGQsW/Mpr//6an3/8iZ1659O0Wc5GnLlJcn3Dy6aqOrxiczrNNklXsRRBHKx2uXXsC4w6bTxz5v/I0cf046DBvUDF2Hf/ruzRrzWO6wdX2tIdfoowb034118EFat8SJIcX/22WyGBeFSznDaw2haMk6o8f4MC5dqAD+UFS6lG4ZI8TlSC01xAoXGDUkI2s1SS19rYzryKIZDAIyXB5FQBbWTbatA4ThhNGOPH7XKPvxXCsHmQWlfWVbRS4ELWCnQ6OGn4xiB+pXV4BHXcjbFliWwCZTKmeHOwofCf/w6BdVFVz78tXMEGUS2kqUjGzCZ1iRVhgwSCmgwFFEQS1Q0LlnglBOnPlsesUmIpu/71Qu6EakFdb2CSf/sofHxP8EnY4JfgKf6KwRQBMT6YMkwihkKjlY8oj2R5IqWSsaubbl9NJVRTWEWR8veOL7SuNnbpUlXpylA/u8NqAak9l2t2UNDhJrm0JVnxJB+a/Kaq8vdbwbZt9CUg+rc0QU9q2XjJd9crOLz9BnG9Xla172b7xpbxDFaIZH+laOO6IDVSy2u8A6igNGit3pCgMo/aEANR+wnWC8rYbgg2XXqLPDTbhsBQq6EGk8HR1ZFUNoW77p2v/bBd0muS57W1qdR6X1W9WnNSra+Bkx4ptRnCsWXY2FJcc/ME1Kq1sDUCkjo9UvohWY60SvyFZIl6pC4nwqZWrO1Dh/0pR3dWa9WkdtjYJ6u16+ZDBeZF8h7WKt7gtTf4O1WFozfVxRKYJvUvtH8GkkXzbBnRGmaA8lNENVh1kmXuN2MTXrPvagqwBOn49dljf4LABiZHsMlBYevvJ5VjIKCiBDFJTaZt96raG8HaszeVhlFV17PjkZpxuqn2pbSFVMFfX0uLCnSt1KfYVt+rmmarbtu2LrFV/QtVRUeSlXQEgZTKObWf207Szd1wJr+XFF0dCGv9mgjbTWCNcYG0IFU7hgQ7/aqZrJLCZY8iVuIE+W/a7neVzYE1no/vJdDaoB175KRISqVrDBhB+6CVrhoEnZwc6y1rG16ytA7x849L+fXXtYRDaXRsn03nri2CrF1TtUwmq7EA2xwzqpKnzFRtMoWqzEYVcCzBxNuWYa82spzgvqQ8iwaTjiiPZctWs/D3ZUTj0Kx5Ph06ZpOTHdr0qiKpNrBGlMEosTyvCG7AYtRXjEI9CWzAbqZE8n/19c9MGD+NDp1bcf/9o2wZzNQkviBDVCULKatMEnGHTz6eyQsvvsPy5QUcdHB/unZtz9tvfYSXMCxfthw37DDsmP055dRD7F1F2YxP5doAbWWrchkjgI8Qp+6OMvhK8c77C7j9lqnEKhUXXrg/1900jMyszMCW8xEUxrgoAUcll87ahzdvAYIaV4IKCihrlJOOPQTZx6goSLLQ3NaR+Vb+FRhtVYNEMMrFZit7CB7ilAOaz/7zCxPveYMff1nBSaccxVVXH0aj7BAQr/MmdnoF1KCOENIRm97jlVgP2la1fn3Ug0vDTldjHBKJiE25MBnsufsgTjv5HP7z3g+cfup9vPH6zzw7+Rsefmg6b06bT3GxYIzG84VXX5nBLjudRX7OcE4d/jeWL/EYOfws9tn7EN596xeefWou38wsZvfdjqdZ00HMn7uOZOENpSL8vjDG1VdOoWXLU8jIPJm27U/nnvvfIGYyahSL2xD7YUUmKLlhhGb5jZj4t3MYN+FsMrMyqrWeCYGfwz/u/4Dhx9/N55//DFpvm84Idu/GF8TL4LabXyM/dwSNMk6kc8cRPPXUx/iSRRDlvlUQBcY4VMZg/ISn6Nz5VHKzR9Ao62R23fkc3nxzBpbrhhGnHsjX301h9rwPGTr0EDAbc5ls4D5i8DyX2257nDZtTiEzcjxZkeO4ZeyzrF5TEjzDtoutTibYbVlpoZowKJ6aPIO87DNolns6nTuP4tDDTuHLb6ZyzY3DuHTM6ezcexcOOvQgRp46kt8XG0ad9RQLfo4hIZcjTxjKxVefy4DBPXhx2jimvX03J5/aFx1aweIVvzPq7CP48tv7OPn0zmh3WVXBDGPAeJq5s2bhqALeeusW1pVO5b5/XMpzz89g3C0vY7wceyYBGqMUBidgFJKwBeU0Gi+hadW6PZ275OM6pWg8HGUQ7WKcpky44z2uu+EFtNOC7Mxm4Hto8TaTUlsf9oh4H8c049br36BgTZwvZ01ibdlzjL/3NB58YBp/n/g58UQOWzvYtpK5z7vvvs+a1QX868lrKSx5kcLyKRx/2hCWr0pQVpJAiWBUCcb5g7S0QnwvRsLzN3Cc0kbuoxSff/YFZWuLeGbyZaxd9zzFZVNZ9Hsld054i0WLCkiqh02VlKoL9WQSKLRSHDKkP7fffT7dezRHSxp+NJ15c37jw/c/Yu3aAvbstwsHHrIniVicdFeTma7Q+Hi+hy8eC39fy98nfsATOV9RVllAJMMlmsgkFLYnwCxbuoZFi5bTp09vMGmIqkDpOMedtB8nDB+E7xt8qURpB+1ofIli8HCTMaVSHSiiMAGVV23T+kYRiWSSkZEZUL4uiItWLXj++VlMff4jXAXNmjchv3kTULGtFtbqnnP54qsvmD13Focc0o9O7TMQVcnQIQfw+SerWFdSTGlpOXmNt+UummHDhnDM0UeBEXsgiE7HcTPRTqjGJ0UJogy2gL5JqRa5qYewR0YNOmBPDhjUH88ThBi+cfBFkfArMabuEMjNQf0d3QlgopStK2TqlNncfcdT/P5bAU4IMrMhI81lyvOv07dvV5o0aUqr/Bw6tGkCpsh6bESxrmQ1K1aV0r5Dd3Zu1YrCoihlJRVkZqQjCNHKGJUVHisWV/DDvEI6d8sgki4YY/CNRsjm+x8Kef65r4lGYefe3XC0tvaspINxUI4tQVST6qwekrSMdNLT06sCQgThob9P5o4JrzLsmKH07787rVo2plmLXGBV8N0NkfKb0WfBfffYqwvPTr2EkONgD7QTKiuFaNSQ0TKbjPQM2IzS7huDFgnKOxkgG08yePWVr3j5xZmcceaBpGVm4kuMpMmUrM+LqjYJ6no6W0jas2PpNMKXEK+9+hXf/7iM6284nk6dOyJ+ZR1XqRv1IrBKhH57taFRY2Ht2h/56KPpHDxkZ6696WyyszNQJodvvlzOPXc9RocuYW65bRTKj6KcMiCExsVxQuy5Z19uuOkM9titK6gY835YwJ13Pk/JugqMgdZtWtO5WzveeXM6obSVjLliGN136oSSTKY+9wW33foMi1YUkzCG0WeM5NBDjgRdgDKKZx6bwSv//pAzzjuQI4b1JeVg1hpIT88gIzMTpXyUBq18Rp2xH0cduw+r15Yz6cF3cVSurYuAv01WmaXdEmgHMrMdEBcfhSGNfz48hTff+pCxY88mklYPtp8SPpvxHXfc+TYzZvyOF/PIa5RHblY2mmTOWLLOVsDlbOgsiI09CwZjDLNm/8GtN7/MZ1/8SkVMuOCC0+jTZzcS8ThuPZzDXT8Cq4Qe3dvSo3s7AIYevBtGuSxbWcGyP2DZstXcdPN99Oqdx3XXn0B6WlA0GB9HCaI8jERZtLCQJ574hCcmf8LPPy3ggEE9ufrK0cSiUBnLIRrN4KQTj+Oaa8+kcycNxO3Sbipp1ymTkaftjpuRzrwf/+DV16fw4QefcNW1x3PyiP1YtaaQGV99zx4DOnPEsN038iCQlhYhkhYBKixfjJCVo0hvlMGPv/3B4qVL6NatLVrZEkZ2PHWgaVMDnzfPVSxJR0lAAyknkyef+JApz85g5PAhHH3kLkC5pedEoR2s5jObb4pYq8XQolke++7bmV692pCdE+aTj+dy4aX3kkhcxqmj+mEoB2yAOhJscDZnSoqyppMDLVvmMnDfVuzapwVZ2Rm8MPVd/vnQU0x66EJOHrkHoVBQgUdtXcztduFhlbL5QZ98PIsxlz1GRaXHKacN5s67zyQn00eRCEwIZQ9oczRauZSVF5CILWLwgXtx4rE9+e2XxYy74QlmfvUrxesqyMgCNwInnHAgt912AlnZjmXIlEe//p3Ya0DnoAEuU1/+lFvGvsCsb5Yw7MhKxlw7mCuuOyToKJvinfS6VQ1JcEhdbX5VAVp8li9dysrlK3G0FU7BHvuEUhilsOXtZcvtWlviBa1zmPTP95l4z4scftQgLrnsMJq3dBFJYIKS9r4olCSDimq7cDchXFro2L0xV15/hLXNUVx94ylcesET/P3Bx2nROspBB+9ZRTci9liozeVB7GF1Di1b53HVDSfb0BBfOOPsszj73Ad48okp9NwpQr+9egRjsHW2fz1pWA06hCc2MNgYIR7T7NP/QEafaZg7ZxZ9d+3JuFse5beffuX775dTUS6cf84Qbho7GpSLdhz67d2LK687lS5d8kGE3n06sXRpBe069OSOe85BhVfz5Rfz+X7uIlatXEd2TmMUGke7eJ6P8Q2Oo/DF0Cgnh/wmTfDiMRJeFO3GEZMIlj69nl2WDE+s8sit/5QUro0Si2oyszKqlKiI8Muva/nhhzV07tqc7jvlBxUVN7vzQML4iRyuveFZnnn2PcaNO4/Rpw8EVYSRBJoISxYVM2feT3Tu3Jydd2q3RV4opQSDg28cJMmRiEG7CcDH830SnocxBrQl/qsDZjb7QdDKwbcn+Vk+XAk5jbPIzEhjdTRGPJFg21wg9SCwIoZ5c+dw112v8Po0W5JIsJRTesQhFNYoJ8S64lJatWxBTqNdOeCAvRFTQcvWnUkkNCE3hG80peWVzJv7O++/NZOXX/mc3fv1Ye89uzHu5ge5445Srrp+OJ9//iPFa2J06dYKkSgfTZ/DW2/OYPBB/RlyeH9wYOWSYt6aNpcfvl/FkKEH0rpNLlqKEUcjvp3d1rEgKcIpST9mivCmesg1vqfxvOQrVHGBP8xfxe0T3uDXX3/jppuP5pJLhwYu5epzFjbYd0ELEvEIt42dzKef/MAj/3cngwd1Z9WK3ygsWs7awkI6dOjA7HmF3H3ndObO+oVbbj2GCy8eTCTN3SxfvVYZjLvtaXLzmnLqaYeSl6tBfN5++1vmf/c7o08/if0G7ROEVCbP20pSUHVPCRGhZF0pY294mt69ejLi1IPJzUuDcJizR4/nlZc/5dabjqdnj87B6qPZvIOi10e9aNjOXbpxzlmjGDQwTs9ddqJZixzyW+SQk5vJlKff5e9/+xfnnLEfp582JBhEH7Q9LELpKK+9NoOJ907hj4Wrmf7eXHr27MQppw1lyOG70bVbc1avKeLuO5/lxamfs644xsWXDEWUj5ABTkvmzBEmTXqQZi2fICtLs3xZKYkoXHTBCMZcfCzRsnIem/QxkyZN5tzzDufCS45FgvPCkrvhZIJARWUZ5RVl67tdlcY3DkVFZawrLg2IAY0Rn8OP2pVDDjuUe+96mfG3TMb46Vx51RDEr9j0mCiFEOL/nniTKS99xMoVJYw88SJEgR+ctqkE7rx7OBdfeiyHHnIwt974GHeMf57snMace94gRKI2iH0jZogoEONSsNph3B3PM/6Ol2jdKovS0hirVkQ5+4wjOPHY3cnKAGNClkkRTawyQSIer1p1NgWlFOFwGkXFIcZcMYWxt06hXfvGFBVFWb6iknPOP4HhpxxIXtOQjXHehsjADQisSvmBmr739QMzlFJkZobYd1BH9hkUAkcwFOFIMX4sk6wMj8wsn7XFi9GhSsTEg5I7HoJB6RDr1pWyZtVahh9/IBPGn0V+8wjixFBOAs8r5YThB7JqVYw7JzzB+ReM4PLLTwOWgo6xz6BWvNr/TpYuTPDM5FeYP38eF55/CIcf2Z8WLRJovQYvEcIkFNEy8D0NJrVKiwqWdutBWb5sOUuXLqV7t7Ykg80VghbDySOH0LVDT1q3yQTlWXekWF7TCa/h+rEn4mjh0Ycfp0lejFGjhlZdY6ODDRwzbCidOuxJ0yYt6Nq1LU7Iww2B4OF7Hq5biPilpIWijJ8wmmjc54H7nqZ5foJhxwys02T2KOOu+0cx5sbzeP+t2bw17V0yMzIZcfKxDNy3NVlZRRixZ8SKSieegMqoh5c8aUfqVuPpGWGeeO5yJiw3/Gf6XN6a9hnpPbM474Jh9O2bR8gpRaQOF+9moF40rDGCwiOkrb89KQBKaVq1ak67tu1IxDxE4gHZ79jIIRGM8Tht1LEkEi35duYMshqV4EYE39fEK0O8Nu1jxo9/huK1YVq1zuWZZ6aQ02gtN998AhhDREWR8BK6dk/j1tsPBXUwIgmElSD2gDonFOWiyw/koiuGonUUZeLrhb7pYELOn/M9c7/ryOAD2tbULCpO63Zhjm7bHQSMiQVuJAelfZAYRtay0855dOnWDt/f9JJnSxtZYW/ZUtO8ZT6QQKtfsIXqAvMkYmMjFB6iogg+Y64YTnpaBZ4x9mA5k4xp2PDGSykIuxW0bRnjjNN7cfboXYO0owRGFaBs0VkEjaPSWbW8mLKScrRuZIO5kjGEm4TgSCmtW4Y4+eQ+jDxlt8CDWIlS64I0pm13zm6BwG7KCA9SXowOyGnN6pXFfDtrHu++P59ff1/M/oMGB3lc9rOq6iA2AakEL4qDxg1pwMePh/i/hz7mppuepP9+e/LIo+fRd89OTPrHszx032OEVJxLx5xIZrZG8DCUoZRG6yCgJjCmJRkKqBMYyiw1tKFHUAatDb4nJBI68KT5KOWRPK5exANVynr2XVD6SKSUYcfvzNEnjMf4UbvJ28AQJcvNayypbw8VrrQlh0QHgSlBKX2SSUYCEkILtG9VwV0TTgFdiUh0E+MSzKlA4BEHIUayqphS2t5fHMsOSBpIFs8+/QSlJYqhh3WsMzQ56VpIyrQWr2rZt7JgJ1F95QqqeOU/RZSLwrM3X+8I+rrvVG0/JcvdBJuJhJBIQCji4LoeiFc1CMkTYqwp6GB8F8/3CblBO3QILxHC88ANeYANLwRIxD3i8QThiIPjanTKaTMprapq06Ybn7QMFIVFMaZ/MJevv/mevfp14ZBD9qBRdjoiwaKeEo1mo9Pq7Joa2DHPx0qeABnik//M45PPvmddSRlHHz2IffbujuPEAnu/fuNatxb1IrApl6vxPcG3qR1KW00nyUrfNW06u1TYXU+yUkoykFkpVUMwRDQEGbOiDCKmjrjUOgS3hhBZzWnjyC01o8WWjTd228+mV5q6BXnHFFpIjl2NHYuwFfTW9sVGTYLNO/ChNlIeTtksZQTEJBdGP7iwtf2S97FfTTm+PHVIq4pgBetocsQ329NT1xaXFNvKet9UcGQTkhqVv5kEeuoz/VchSbKlvLIDzixXY+1KJ4h8N1RXpt46oQ1QVd48NQ7SeoiSR2+mfNjO5OBYziQHau1dUhpRPSFqHzS3TaghtMn7JH/b9C6/AX8u1tOwtZ2SNYV2682D1Ndre5mS5gBU28MitT+1nVFrDv1XKsn/AWzEJEgVtq2xZevGjrjcNGDHx3oCW1OvNeicBuxYqKIkBcXy5WXcMWEaJ49+kFlzSlCSZT+yHnG8Y+0cG/C/A5265Ldo0YZBA4eybKHP9Vc9y+xvC2wZ8x24/GID/reQDH4EQKlK9hnYjCuvO5I/lvzCw4/+O6gsmKxl1YAG/LVwg2RpAERHgQQZaQmyM0P4vj3BxGLHPoO0Af8bcP2kktXGalJxiFZWUlZSilYRfNFosRFLO/gRTg34H0DKaWUOmDAgtG7XhF1270JFTFMWzcdXOeCkZpA1aNoG/DVI2U0FGhbotlNbDhqyL++88yHjbnkUV7fH34ZiDg1oQH1hA44Dn//X3plHSVVkafwX8V5mVlbWQoFV7CiOgqAotNJzgAYbUHvABVBEFHGO0EeZRuxpBQYdwAFZ1BZR1BY5arfa44aCoi3goOPQNog0iwqClGyyU1Sx1JbLexHzR7xXlVUUqDTWgvmdk+fk9jLjvXfjRsSNe7/PtgMMGzYAW7fi7rumcKzgIE8+fSd2xDoucSWFFGoTNVYcSBFi0Tv/xz1jZ9GuQ0v+ZcCFhDMSVDKlpDxtCnWDJIP1N9MFGzfs4O0FH9Ot2z/zyO9/Tfv2NpoyUpsFKdQ1atwR2L37IOvXfUXTphmcd34OiFhttyuFFGpEpcEKjfaEooIBi3A4HSEUAamRtcMsn0IK34lqlmhyBIJptuFGxUWKOJWCHam5awp1i0qD1RJBAEE6Bw5AUWEpF7ZvhevEkXYqMpBC/UCVOezn6/IZMnAyI26bReeLLub222+oIrOZQgp1DRGPPmMmrtoiWhYkWnIWGdlZWMFiBIVIUeZ9NZVSmELdw67kkNKkRaKEI7sqKCCFTuIOSBnryeFp1p4qZ9SPhgqVmjNjWierPPUIFSTKKEtrqG6sfhFrTY/aR/3pSFKk886C5fzl3Y/qtiFa4lPdG1pNn/Dj1HUF6hNsKaVX3err2H0vsAAADK5JREFU4DlerX+ydzWo4FiqNwVZ9agdUhJ3DMeKd5HqrDWObokgD3QCyw4hrf1otRetkgkxfF9VPzr890VSWMvnZ/K3XkW1vIFTNdYfp4ixfqLus9iEEJRFy3jjzQV8vXkXifhRel/egit6dyQSCdVp204HTl77opM+1kn05jV9tb44u584tNZkhIoZfktvGmUGuLx7BwZd24dIeqSum3ZacMIyb42sVNHTxtv6jHqI71t98EOHx+/Jh1UrSG579fbXvSc9GZQARyqcgEVMgeMqzpToZA0eViCkRNsSrDBuLJt4WToQwbEkyhIooXG1pKDAYu2ao+zc4aJ02CO6kWhtoYSNsLNJqAzK4xJtZ6EwiwChBUIKojHFnNnL+I9754MOmOZoG6HDSBHG1UHKE0FiZKICWbgyiM8R/Y+K4dUMT53KkijbTlJRFICLwsHFAjuDmBuhzEnDEWGPNUnhy1fWNaSySFNZRI/EKC0tO0PiAwbHX10hOFRUzOxHF9Ci2XAym9xMq9bDGT9uHkKHUU4I3CygCcXl6RQWNcYVzRCBCEpHUNhoW/PWwpW0bn0LjbKG0TLvDobd+BCbNu0DbISMkIhlcuxYOiXRNOKOjSYMKoSLRUKnsfCtjVzW6V6aNR5JXs6t9O09kcWLN4GI1NjsfxzaLDuFzTNPLqXbz0bz0ot/8Ygpzchi2eksXbKaX3QbQ27OreTl/CsXd/wtr766Eo1VQaNZ17N1IV2QCTKzMsjODiOtum/T6UKVO6+BaFSxcP6XTJu8hH5X9mPrtk94au7DrP9iBy+/vAik5n8/+pwel43h511GMGb0FK751W9plXsjUya9hLSz+PuafF5+eSm9+1zF11s/4LkXZrFpUymzZy2m6EgZ69dvZsTwmXS5cBRPzlnAc899QMuzhjF54itYIo03XvuQf79nDv90wSV8+PF85r/5HIFAU55/YSWbNxed4qkmD+01DfMWyABHihPs2FXG0SOYMB9gPKzF+++tYMa0RdhWG1559SnWrHmX7t1+wZavD1Meq0e0hFrgOAkQCRPxgTOmHq9qHJYAa9ds45U/f8BVV1zB9On30DRvN4NvasvtI4ay9tMCLGHRq3cXln38Jg9Om8bOXQc5r30Hln20iEkPjsFRZWz88jCWbMa4CVeR12If/Qe1Z9Tom/h25wE2btjKRZ3P4YWXpzLpv0ZTUlJOt+4/481Fs5k6fSSOW86NQ/qwZeu7vDL/Xi651KFX7xz69e9MeanDsaPOSQjg/Hij/4BK4zyZjzHToPKY5vHZH/DM00vo1PkCOl1yAX70ROsA69cdZveeYobe3J3+/dvQrl0ZQ4d2Ji83wo4de/kuevjagpARlGNxcH8hR4tcUGkIYZn6aE9STAhf3qlhxWerjq1Ck9Mkkz5XdOWqa9uT26IQm2NIFcfGxZIKjYO0XD797ENe+ONcwumajRtW8OJL87BEAqkEkZDNxRc0plP7FoTcBAFdjhAxggFBOC2AFDZr1q1m6ZL3uLrflXS9tDPvLVqMq2NYgQRWoBhL7CaoC0gjwbavt7Bm9Wdkp0donNkItIXUFkJVl9bzg+Y+o3QV8kiP4bpmjtY9uwuYMPZPPPHYEqQI0rx5U1q3agaAS4CEtEjPsvj1yOsYclNPkEUoyhAiSihoY1shNKJe3P5omcXqVRv4zb+NpFPHTnz26UZKjiWMHoMyrJKGGfL7dOb6haQogRHCbdehJRMmnY8QAaQsB2XzzTfbWLnqr4QjNkq5aCedvd8epkP71ry/+DEWv7eSVX9bixNzsdMS3Di0J0OGXI5WJYCgoOAoO7fvp1FOI5q3zEOj2fzVPrIyz2bqg3fxyfLlrFuTz9FjhTRuEgYNSoTZvPUQL/7xLV6fv4JweksmjL+a89rnAocwRZNVT0ajjHaB1w/NcimZ1O7EprT6042s/fRLxo8diYtFPLab7EYRII5EI7TDmNHXoLUFxAAHKxDiiw3biJUrmrfIQ/xdGtLmOkYoHKVHrxYoHaXdublIkYPSxSDK8cWhG2qpk0jE5uoKpWuhkNrFnJQCHWLjhgJmznibUNjmD8+OIBBIYGmJq0zCtxASIcASAqWMKJnZ3gWtM/lmq+aJx95h3fq/MmHitVx99WUI7SCQxh/52ljKRQvX0xe0iMcCLF26hp079pObm82z895l9epD3HrbNcyccQtNso8lhdcMli//mgVvfUlpsY2TcIjGyiktj4GIMfj6rtx2ay9kII5W5hyNA/ZvnEQBUSSPznwfqSSTJw9EOWUVsWePHwehbRw3wvRHFjJr1mv8530DGD9+CPNfW0LQjjPw+t7UrdcybOdmJDGLSSX8a+1PWap714ZhvNV2uvyHwtVZrFq7m6kP/DdFBUe5f9IA7GACXFBKIaS5AAITn1VambCWtjC+LoMvvihlxoxX2JK/lrHj+tO//8+BmBfedCFZX0r4ZmOhsQiFNNdddyn+qHXtdb144sllPPHoQtq2sLlv4q+STsMcWVRYRP62r8hslEfrlrmkBTMRIovde7Zz6PAOiku7kJ2ThtHHqg4TkAooidTSrLSFU+XqoAVS2MTiGTw0cyFPzXmN3909mFGj+nkl8jJpoVaXMMzhuoqRnqgDNQxD9VFl48CYXwBEGss/2cK4cfMI2OlMnTmcK/t0ROgSkBplmQwvoYW3meBlIgh/3qhYtXoLU6b+DwcPbOb+iQO44forEaLMGIsnOXm8GNrxw7bwONgjmWGyc7JIODFisXLMVrHPtixASwYNHsINN0/CdcPgJCABjgPCiiKtbxHswXWNMIj58eNvonJcUC6yypVxMNT3YQ4XB3j44VeZ+/RC7h07lHvGDyAQLDWfaxO0rxeDrUheACbnD/ibIQ2ziqRKlEBoGyHTWfTeF9xyyzTCaWcx46Hf0advTxydRlw1xhFhEMJbwJgwfsUt0sbTlZcGWfG3HRQe2cPEySMZMPAaIARuE5SbjSZw4hapCE60FYnyFrhOFgkngJLpbN9VwsYNu2h7bjM6djq7xkPnPP4S6aHzCae1IiOjLTmN25Kb15bGOR24+65pFBYe9di+/fSyGhYcWmDbEAhAxc3VNugg+/aVMfH+P/OHZ95h7P13MO6+OwgG05CyCchslHZQyjmuXfUL3+Vx6zdEIvas1lpXpKItensVd456lqzGrfllrx5Agu0789m2YzclJYcZdUd3pj5wG1IJFJUS4sbDKsrL4jw/dwVPzFlG1+5dyMnIJj//Gw4cKKTwwGEGD+vJ7x+7jZB1rMYG7dsf5fHZHzFv7rtcN7Avtw4fzPbtO3nzrWWs+mwtY8YMZMoDQ7HEYSpZFU1HcVyBK0PYwQwsYbQapLRAu6hEFOVGzVB/HNdtpWePRi0emfk+dkAzcfJAlGsWXZoI06YtYvqMN+jbty8dO5zP5vwN7N23lz27DnD9oG6ce06QtudmM+iGXtQvg6ieoZWc5NSwsrZsrb2bLhKATTwmiJdAqbuLzz9bxEUXnkOvrm3pcWkzdu3Jp02zDCzlS5Mlw3ir/fsL2PrNNsqPFbF980qC7VvTvVsbQulns3/ffi7qmIUtXCMj5MEb9QFonteI39x5FVKW8acXP+T1+R8iJXTq1JLnnxvDoAGXYcnCpCP9/3axLbBxIFGa9G7lv4iKDfXqOQKVz6VMYNtRhLZxXRchMOrWKoYt4mSGNPmbliH1l7Rrdz7dul5MQcEBzmmTjZOIUz+H2OoZc6KG9xoGvBIZ7wUSoQNob2qrvYVRxQ0VRrhdKPNesliH9l9rG0EIKc18Vmnl/Y63xhYmllulEVSdTmoNGhstQmhhmTmvdrFEDKndHzUzzIjIWUghETiA68mMWl6bJEZ3zJw3UiG0xCKd119dQiAQY+DgnjQ0Q2gosH2ZIQMNJBAkgOTtPG/eo08UFveGFi/9UOsoSmlkhUym8jxyZcbKiY3OU9b2jAUlvciXr3ZYk3c/jRAgcRG+b/bjqsIktwt/deVdB600Wgi0tEAmSHGP/bioIaxlUXW49HGiVDv/U43J1DJRgsrfhIqtUq1NqEj479UE4719TcSKOC2ga8EYKvtRcnC9pnPXVY4xnbs+TgfOLNjHh5ZO3Sj8AhEfVfW93ApDPbl8pTGQylB98tSjNuddPzDnVQNa1RCqS+F04pQ4iOquuqAOjOH7pAvWh5zCnwhSpFmnCVq59OjRGWHV9zhsw4Zddcej9lynHxU4I2rBhEYTpUVrv24q5W5/LHgetvZrlM4IQ61AykBrC3WfC5dCCj8AKYNNoUEhZbApNCikDDaFBoWUwabQoJAy2BQaFKTZ/4eGVj2Zwk8T/w/HSFobI27mAAAAAABJRU5ErkJggg==;movable=0;resizable=0;rotatable=0;deletable=0;editable=0;connectable=0;" parent="1" vertex="1">
                    <mxGeometry x="100" y="290" width="172" height="142" as="geometry"/>
                </mxCell>
                <mxCell id="8" value="唯一" style="text;html=1;align=center;verticalAlign=middle;resizable=0;points=[];autosize=1;strokeColor=none;fillColor=none;movable=0;rotatable=0;deletable=0;editable=0;connectable=0;" parent="1" vertex="1">
                    <mxGeometry x="135" y="10" width="50" height="30" as="geometry"/>
                </mxCell>
            </root>
        </mxGraphModel>
    </diagram>
</mxfile>